<svg width="34" height="34" viewBox="0 0 34 34" fill="none" xmlns="http://www.w3.org/2000/svg">
    <defs>
        <linearGradient id="paint0_linear_79_4018" x1="3.42207" y1="2.26365" x2="30.883" y2="28.5674" gradientUnits="userSpaceOnUse">
            <stop stop-color="#5961C3"/>
            <stop offset="1" stop-color="#3B42AD"/>
        </linearGradient>
    </defs>

    <path d="M15.4955 3.638C16.3837 2.958 17.6184 2.958 18.5066 3.638L29.0509 11.6981C30.3939 12.7245 29.6735 14.8665 27.9863 14.875H6.01375C4.32862 14.8665 3.60612 12.7245 4.95125 11.6981L15.4955 3.638V3.638ZM17 11.1562C17.4227 11.1562 17.8281 10.9883 18.127 10.6894C18.4258 10.3906 18.5938 9.98519 18.5938 9.5625C18.5938 9.13981 18.4258 8.73443 18.127 8.43555C17.8281 8.13666 17.4227 7.96875 17 7.96875C16.5773 7.96875 16.1719 8.13666 15.873 8.43555C15.5742 8.73443 15.4063 9.13981 15.4062 9.5625C15.4063 9.98519 15.5742 10.3906 15.873 10.6894C16.1719 10.9883 16.5773 11.1562 17 11.1562ZM7.4375 17V23.375H10.625V17H7.4375ZM12.75 17V23.375H15.9375V17H12.75ZM18.0625 17V23.375H21.25V17H18.0625ZM23.375 17V23.375H26.5625V17H23.375ZM4.25 28.1562C4.25 26.69 5.44 25.5 6.90625 25.5H27.0938C28.56 25.5 29.75 26.69 29.75 28.1562V28.6875C29.75 28.9693 29.6381 29.2395 29.4388 29.4388C29.2395 29.6381 28.9693 29.75 28.6875 29.75H5.3125C5.03071 29.75 4.76046 29.6381 4.5612 29.4388C4.36194 29.2395 4.25 28.9693 4.25 28.6875V28.1562Z" fill="url(#paint0_linear_79_4018)"/>

</svg>
