<svg width="128" height="100" viewBox="0 0 128 100" fill="none" xmlns="http://www.w3.org/2000/svg">
    <defs>
        <linearGradient id="paint0_linear_78_1912" x1="112.582" y1="63.914" x2="68.1449" y2="34.1441" gradientUnits="userSpaceOnUse">
            <stop stop-color="#E3C9A0"/>
            <stop offset="1" stop-color="#FDF5E8"/>
        </linearGradient>
        <linearGradient id="paint1_linear_78_1912" x1="67.6031" y1="53.1986" x2="23.6676" y2="23.7647" gradientUnits="userSpaceOnUse">
            <stop stop-color="#CEBA95"/>
            <stop offset="1" stop-color="#AF8E61"/>
        </linearGradient>
        <linearGradient id="paint2_linear_78_1912" x1="99.6532" y1="80.8729" x2="7.38224" y2="84.9531" gradientUnits="userSpaceOnUse">
            <stop stop-color="#926D33"/>
            <stop offset="1" stop-color="#7B5628"/>
        </linearGradient>
        <clipPath id="clip0_78_1912">
            <rect width="117.714" height="97.7273" fill="white" transform="translate(6.85718 1.13636)"/>
        </clipPath>
    </defs>
<g clip-path="url(#clip0_78_1912)">
<path d="M62.2212 71.4125L100.181 92.7314L108.371 23.8228L80.1447 1.13636L62.2212 71.4125Z" fill="url(#paint0_linear_78_1912)"/>
<path d="M62.2211 71.4125L6.85718 73.0823L24.0237 8.31224L80.1447 1.13636L62.2211 71.4125Z" fill="url(#paint1_linear_78_1912)"/>
<path d="M26.7562 72.4777L39.4599 72.0963L41.2407 64.7404C40.9739 64.5965 40.7865 64.3805 40.3106 64.4165C39.5752 64.4813 39.6185 65.0355 38.8759 65.1003C38.1333 65.1579 38.09 64.5965 37.3546 64.6612C36.6192 64.7188 36.6625 65.2802 35.9199 65.345C35.1845 65.4026 35.134 64.8484 34.3986 64.906C33.656 64.9635 33.7065 65.525 32.9639 65.5897C32.2285 65.6545 32.178 65.0931 31.4426 65.1507C30.7072 65.2083 30.7505 65.7697 30.0078 65.8344C29.2652 65.8992 29.222 65.3378 28.4794 65.3954C28.4289 65.3954 28.3856 65.4026 28.3424 65.417L26.7562 72.4777Z" fill="#927B59"/>
<path d="M41.8679 11.3784C42.1347 11.1768 42.2572 10.8889 42.7619 10.817C43.4973 10.7162 43.5766 11.2704 44.312 11.1696C45.0474 11.0689 44.9681 10.5075 45.7035 10.4067C46.4389 10.3059 46.5182 10.8601 47.2536 10.7594C47.989 10.6586 47.9097 10.0972 48.6451 9.99645C49.3805 9.89569 49.4598 10.4499 50.1952 10.3491C50.9306 10.2484 50.8513 9.68696 51.5867 9.5862C52.3221 9.48543 52.4014 10.0396 53.1368 9.93887C53.8722 9.83811 53.7929 9.2767 54.5283 9.17594C55.1988 9.08237 55.3214 9.53581 55.8982 9.54301L57.2248 4.08013L43.0647 5.8723L41.8679 11.3784Z" fill="#927B59"/>
<path opacity="0.4" d="M84.9608 70.8655L90.9521 74.6657L89.503 82.2447L83.3818 78.7395L84.9608 70.8655ZM90.57 74.8745L85.2203 71.4988L83.8216 78.5092L89.2794 81.6473L90.57 74.8745Z" fill="black"/>
<path opacity="0.4" d="M77.4842 66.1223L84.11 70.3257L82.5167 78.2429L75.7322 74.3634L77.4842 66.1223ZM83.6846 70.5344L77.7654 66.7989L76.2152 74.1331L82.2571 77.6095L83.6846 70.5344Z" fill="black"/>
<path opacity="0.4" d="M69.1714 60.8466L76.5398 65.5249L74.7662 73.8092L67.2175 69.4908L69.1714 60.8466ZM76.0639 65.7265L69.4814 61.5735L67.7511 69.2604L74.4778 73.1327L76.0639 65.7265Z" fill="black"/>
<path opacity="0.4" d="M81.6803 72.1826C81.5001 73.0607 80.808 73.4637 80.0726 73.147L79.777 74.5866L80.1374 74.8025L80.0437 75.2415L80.5844 75.5582L80.4979 75.9973L78.3062 74.7233L78.3999 74.2771L78.955 74.6009L79.0488 74.1619L79.4165 74.3778L79.7121 72.9383C79.0127 72.3985 78.6018 71.3189 78.7892 70.4264L79.1569 68.6774L82.0336 70.4696L81.6803 72.1826Z" fill="black"/>
<path opacity="0.4" d="M74.0091 71.7148L73.9153 72.1682L68.6234 69.1021L68.7316 68.6343L74.0091 71.7148Z" fill="black"/>
<path opacity="0.4" d="M73.1007 70.7935L72.697 70.5632L72.3004 70.3257L73.0719 66.7917L73.4684 67.0364L73.8649 67.2811L73.1007 70.7935Z" fill="black"/>
<path opacity="0.4" d="M70.6782 69.3756L70.2672 69.1381L69.849 68.8934L70.6493 65.3162L71.0603 65.5609L71.4641 65.8128L70.6782 69.3756Z" fill="black"/>
<path opacity="0.4" d="M73.8866 65.1219L74.521 67.3027L72.5455 66.0863L73.8866 65.1219Z" fill="black"/>
<path opacity="0.4" d="M71.4857 63.6176L72.149 65.8416L70.1086 64.5893L71.4857 63.6176Z" fill="black"/>
<path opacity="0.4" d="M87.8014 73.946C89.1785 74.8097 89.7697 76.2996 89.5246 77.5519L87.3544 76.2348L86.8642 78.7467C86.8209 78.9771 86.929 79.2506 87.1093 79.3585C87.2895 79.4665 87.4698 79.3585 87.5203 79.1282L87.5635 78.9195L87.888 79.1138L87.8447 79.3225C87.7582 79.7832 87.3905 79.9919 87.03 79.776C86.6695 79.5672 86.446 79.013 86.5325 78.5524L87.0228 76.0333L85.105 74.8745C85.3717 73.5861 86.3955 73.0679 87.8014 73.946Z" fill="black"/>
<path opacity="0.5" d="M100.181 92.7315L111.161 98.8637L124.572 39.0383L108.371 23.8228L100.181 92.7315Z" fill="#E5CDA7"/>
<path opacity="0.5" d="M43.865 89.6149L57.989 95.9846L111.161 98.8636L100.181 92.7314L43.865 89.6149Z" fill="#8A6633"/>
<path opacity="0.5" d="M66.8644 92.7674L66.9797 92.8394L73.5046 96.8268L83.4757 97.3666L77.4916 93.7102L77.4267 93.6671C77.2464 93.6959 77.0662 93.7103 76.7562 93.6887C76.4101 93.6599 76.2659 93.6095 76.1073 93.5591C75.9415 93.5015 75.7684 93.4367 75.3791 93.408C74.9898 93.3792 74.7735 93.408 74.5644 93.4367C74.3625 93.4655 74.1751 93.4943 73.829 93.4655C73.4902 93.4368 73.3388 93.3864 73.1801 93.3288C73.0143 93.2712 72.8413 93.2064 72.4519 93.1776C72.0626 93.1489 71.8463 93.1776 71.63 93.2064C71.4282 93.2352 71.2407 93.264 70.9018 93.2352C70.563 93.2064 70.4116 93.156 70.253 93.0985C70.0871 93.0409 69.9141 92.9833 69.5248 92.9473C69.1355 92.9185 68.9192 92.9473 68.7101 92.9761C68.5082 93.0049 68.3208 93.0337 67.9819 93.0049C67.643 92.9761 67.4916 92.9257 67.333 92.8681C67.196 92.8466 67.0735 92.8034 66.8644 92.7674Z" fill="#927B59"/>
<g opacity="0.5">
<path opacity="0.5" d="M67.8809 90.9464L79.0488 97.1218L79.5823 97.1506L68.4144 90.9752L67.8809 90.9464Z" fill="#66340E"/>
</g>
<path d="M43.865 89.6149L100.181 92.7314L62.2212 71.4125L6.85718 73.0823L43.865 89.6149Z" fill="url(#paint2_linear_78_1912)"/>
<path d="M62.2212 71.4125C57.6069 71.6068 52.9926 71.7795 48.3856 71.9235L34.5428 72.3913L20.7 72.7584C16.0857 72.888 11.4714 72.9959 6.85718 73.0751C11.4714 72.8808 16.0857 72.708 20.6928 72.5641L34.5356 72.1034L48.3784 71.7364C52.9926 71.5996 57.6069 71.4988 62.2212 71.4125Z" fill="#66340E"/>
<path d="M34.139 72.2617L67.8809 90.9464L68.4144 90.9752L34.586 72.2473L34.139 72.2617Z" fill="#66340E"/>
<path d="M26.7562 72.4777L34.8817 76.2276L34.9826 76.2996C35.1845 76.3499 35.4008 76.4003 35.7829 76.4075C36.1722 76.4147 36.3525 76.3715 36.5255 76.3283C36.6913 76.2924 36.8427 76.2492 37.1888 76.2564C37.5349 76.2636 37.7151 76.3068 37.917 76.3571C38.1261 76.4075 38.3424 76.4579 38.7317 76.4651C39.121 76.4723 39.3013 76.4291 39.4743 76.3859C39.6401 76.3499 39.7915 76.3068 40.1376 76.314C40.4837 76.3212 40.6639 76.3643 40.8586 76.4147C41.0677 76.4651 41.284 76.5155 41.6733 76.5227C42.0626 76.5299 42.2429 76.4867 42.4159 76.4435C42.5817 76.4075 42.7331 76.3643 43.072 76.3715C43.4181 76.3787 43.5983 76.4219 43.8002 76.4723C44.0093 76.5227 44.2256 76.5731 44.6149 76.5803C45.0042 76.5875 45.1845 76.5443 45.3575 76.5011C45.5233 76.4651 45.6747 76.4219 46.0208 76.4291C46.3669 76.4363 46.5471 76.4795 46.7418 76.5299C46.9509 76.5803 47.1672 76.6307 47.5565 76.6378C47.6574 76.6378 47.7367 76.6378 47.816 76.6378L47.7511 76.5947L39.4743 72.0818L26.7562 72.4777Z" fill="#927B59"/>
</g>

</svg>
