<svg width="128" height="100" viewBox="0 0 128 100" fill="none" xmlns="http://www.w3.org/2000/svg">
    <defs>
        <linearGradient id="paint0_linear_78_1965" x1="15.4181" y1="63.914" x2="59.8551" y2="34.1441" gradientUnits="userSpaceOnUse">
            <stop stop-color="#E3C9A0"/>
            <stop offset="1" stop-color="#FDF5E8"/>
        </linearGradient>
        <linearGradient id="paint1_linear_78_1965" x1="60.3969" y1="53.1986" x2="104.332" y2="23.7647" gradientUnits="userSpaceOnUse">
            <stop stop-color="#CEBA95"/>
            <stop offset="1" stop-color="#AF8E61"/>
        </linearGradient>
        <linearGradient id="paint2_linear_78_1965" x1="28.3468" y1="80.8729" x2="120.618" y2="84.9531" gradientUnits="userSpaceOnUse">
            <stop stop-color="#926D33"/>
            <stop offset="1" stop-color="#7B5628"/>
        </linearGradient>
        <clipPath id="clip0_78_1965">
            <rect width="117.714" height="97.7273" fill="white" transform="matrix(-1 0 0 1 121.143 1.13635)"/>
        </clipPath>
    </defs>
<g clip-path="url(#clip0_78_1965)">
<path d="M65.7788 71.4125L27.8192 92.7314L19.6289 23.8228L47.8553 1.13635L65.7788 71.4125Z" fill="url(#paint0_linear_78_1965)"/>
<path d="M65.7789 71.4125L121.143 73.0823L103.976 8.31223L47.8553 1.13635L65.7789 71.4125Z" fill="url(#paint1_linear_78_1965)"/>
<path d="M101.244 72.4777L88.5401 72.0963L86.7593 64.7404C87.0261 64.5965 87.2135 64.3805 87.6894 64.4165C88.4248 64.4813 88.3815 65.0355 89.1241 65.1003C89.8667 65.1579 89.91 64.5965 90.6454 64.6612C91.3808 64.7188 91.3375 65.2802 92.0801 65.345C92.8155 65.4026 92.866 64.8484 93.6014 64.9059C94.344 64.9635 94.2935 65.5249 95.0361 65.5897C95.7715 65.6545 95.822 65.0931 96.5574 65.1507C97.2928 65.2082 97.2495 65.7697 97.9922 65.8344C98.7348 65.8992 98.778 65.3378 99.5206 65.3954C99.5711 65.3954 99.6144 65.4026 99.6576 65.417L101.244 72.4777Z" fill="#927B59"/>
<path d="M86.1321 11.3784C85.8653 11.1768 85.7428 10.8889 85.2381 10.817C84.5027 10.7162 84.4234 11.2704 83.688 11.1696C82.9526 11.0689 83.0319 10.5075 82.2965 10.4067C81.5611 10.306 81.4818 10.8602 80.7464 10.7594C80.011 10.6586 80.0903 10.0972 79.3549 9.99646C78.6195 9.8957 78.5402 10.4499 77.8048 10.3491C77.0694 10.2484 77.1487 9.68697 76.4133 9.58621C75.6779 9.48544 75.5986 10.0396 74.8632 9.93888C74.1278 9.83812 74.2071 9.27671 73.4717 9.17595C72.8012 9.08238 72.6786 9.53582 72.1018 9.54302L70.7752 4.08014L84.9353 5.87231L86.1321 11.3784Z" fill="#927B59"/>
<path opacity="0.4" d="M43.0392 70.8654L37.0479 74.6657L38.497 82.2446L44.6182 78.7394L43.0392 70.8654ZM37.43 74.8744L42.7797 71.4988L44.1784 78.5091L38.7206 81.6472L37.43 74.8744Z" fill="black"/>
<path opacity="0.4" d="M50.5158 66.1223L43.89 70.3256L45.4833 78.2429L52.2678 74.3634L50.5158 66.1223ZM44.3154 70.5344L50.2346 66.7989L51.7848 74.1331L45.7429 77.6095L44.3154 70.5344Z" fill="black"/>
<path opacity="0.4" d="M58.8286 60.8466L51.4602 65.5249L53.2338 73.8092L60.7825 69.4907L58.8286 60.8466ZM51.9361 65.7264L58.5186 61.5735L60.2489 69.2604L53.5222 73.1326L51.9361 65.7264Z" fill="black"/>
<path opacity="0.4" d="M46.3197 72.1826C46.4999 73.0607 47.192 73.4637 47.9274 73.147L48.223 74.5865L47.8626 74.8025L47.9563 75.2415L47.4156 75.5582L47.5021 75.9973L49.6938 74.7233L49.6001 74.2771L49.045 74.6009L48.9512 74.1619L48.5835 74.3778L48.2879 72.9383C48.9873 72.3985 49.3982 71.3189 49.2108 70.4264L48.8431 68.6774L45.9664 70.4696L46.3197 72.1826Z" fill="black"/>
<path opacity="0.4" d="M53.9909 71.7147L54.0847 72.1682L59.3766 69.1021L59.2684 68.6343L53.9909 71.7147Z" fill="black"/>
<path opacity="0.4" d="M54.8993 70.7935L55.303 70.5632L55.6996 70.3256L54.9281 66.7917L54.5316 67.0364L54.1351 67.2811L54.8993 70.7935Z" fill="black"/>
<path opacity="0.4" d="M57.3218 69.3755L57.7328 69.138L58.151 68.8933L57.3507 65.3162L56.9397 65.5609L56.5359 65.8128L57.3218 69.3755Z" fill="black"/>
<path opacity="0.4" d="M54.1134 65.1218L53.479 67.3027L55.4545 66.0863L54.1134 65.1218Z" fill="black"/>
<path opacity="0.4" d="M56.5143 63.6176L55.851 65.8416L57.8914 64.5892L56.5143 63.6176Z" fill="black"/>
<path opacity="0.4" d="M40.1986 73.946C38.8215 74.8097 38.2303 76.2996 38.4754 77.5519L40.6456 76.2348L41.1358 78.7467C41.1791 78.977 41.071 79.2505 40.8907 79.3585C40.7105 79.4665 40.5302 79.3585 40.4797 79.1282L40.4365 78.9195L40.112 79.1138L40.1553 79.3225C40.2418 79.7832 40.6095 79.9919 40.97 79.776C41.3305 79.5672 41.554 79.013 41.4675 78.5524L40.9772 76.0333L42.895 74.8745C42.6283 73.5861 41.6045 73.0679 40.1986 73.946Z" fill="black"/>
<path opacity="0.5" d="M27.8192 92.7315L16.8387 98.8637L3.42849 39.0383L19.6289 23.8228L27.8192 92.7315Z" fill="#E5CDA7"/>
<path opacity="0.5" d="M84.135 89.6149L70.011 95.9846L16.8388 98.8636L27.8193 92.7314L84.135 89.6149Z" fill="#8A6633"/>
<path opacity="0.5" d="M61.1356 92.7673L61.0203 92.8393L54.4954 96.8267L44.5243 97.3665L50.5084 93.7102L50.5733 93.667C50.7536 93.6958 50.9338 93.7102 51.2438 93.6886C51.5899 93.6598 51.7341 93.6094 51.8927 93.5591C52.0585 93.5015 52.2316 93.4367 52.6209 93.4079C53.0102 93.3791 53.2265 93.4079 53.4356 93.4367C53.6375 93.4655 53.8249 93.4943 54.171 93.4655C54.5098 93.4367 54.6612 93.3863 54.8199 93.3287C54.9857 93.2712 55.1587 93.2064 55.5481 93.1776C55.9374 93.1488 56.1537 93.1776 56.37 93.2064C56.5718 93.2352 56.7593 93.264 57.0982 93.2352C57.437 93.2064 57.5884 93.156 57.747 93.0984C57.9129 93.0408 58.0859 92.9833 58.4752 92.9473C58.8645 92.9185 59.0808 92.9473 59.2899 92.9761C59.4918 93.0049 59.6792 93.0336 60.0181 93.0049C60.357 92.9761 60.5084 92.9257 60.667 92.8681C60.804 92.8465 60.9265 92.8033 61.1356 92.7673Z" fill="#927B59"/>
<g opacity="0.5">
<path opacity="0.5" d="M60.1191 90.9464L48.9512 97.1218L48.4177 97.1506L59.5856 90.9752L60.1191 90.9464Z" fill="#66340E"/>
</g>
<path d="M84.135 89.6149L27.8193 92.7314L65.7788 71.4125L121.143 73.0823L84.135 89.6149Z" fill="url(#paint2_linear_78_1965)"/>
<path d="M65.7788 71.4125C70.3931 71.6068 75.0074 71.7795 79.6144 71.9235L93.4572 72.3913L107.3 72.7584C111.914 72.888 116.529 72.9959 121.143 73.0751C116.529 72.8808 111.914 72.708 107.307 72.5641L93.4644 72.1034L79.6216 71.7364C75.0074 71.5996 70.3931 71.4988 65.7788 71.4125Z" fill="#66340E"/>
<path d="M93.861 72.2617L60.1191 90.9464L59.5856 90.9752L93.414 72.2473L93.861 72.2617Z" fill="#66340E"/>
<path d="M101.244 72.4777L93.1183 76.2276L93.0174 76.2996C92.8155 76.3499 92.5992 76.4003 92.2171 76.4075C91.8278 76.4147 91.6475 76.3715 91.4745 76.3283C91.3087 76.2924 91.1573 76.2492 90.8112 76.2564C90.4651 76.2636 90.2849 76.3068 90.083 76.3571C89.8739 76.4075 89.6576 76.4579 89.2683 76.4651C88.879 76.4723 88.6987 76.4291 88.5257 76.3859C88.3599 76.3499 88.2085 76.3068 87.8624 76.314C87.5163 76.3212 87.3361 76.3643 87.1414 76.4147C86.9323 76.4651 86.716 76.5155 86.3267 76.5227C85.9374 76.5299 85.7571 76.4867 85.5841 76.4435C85.4183 76.4075 85.2669 76.3643 84.928 76.3715C84.5819 76.3787 84.4017 76.4219 84.1998 76.4723C83.9907 76.5227 83.7744 76.5731 83.3851 76.5803C82.9958 76.5875 82.8155 76.5443 82.6425 76.5011C82.4767 76.4651 82.3253 76.4219 81.9792 76.4291C81.6331 76.4363 81.4529 76.4795 81.2582 76.5299C81.0491 76.5803 80.8328 76.6307 80.4435 76.6378C80.3426 76.6378 80.2633 76.6378 80.184 76.6378L80.2489 76.5947L88.5257 72.0818L101.244 72.4777Z" fill="#927B59"/>
</g>

</svg>
