<svg width="128" height="100" viewBox="0 0 128 100" fill="none" xmlns="http://www.w3.org/2000/svg">
    <defs>
        <linearGradient id="paint0_linear_78_2009" x1="112.318" y1="35.2257" x2="58.8313" y2="35.5106" gradientUnits="userSpaceOnUse">
            <stop stop-color="#E3C9A0"/>
            <stop offset="1" stop-color="#FDF5E8"/>
        </linearGradient>
        <linearGradient id="paint1_linear_78_2009" x1="69.0723" y1="51.5882" x2="16.1894" y2="51.87" gradientUnits="userSpaceOnUse">
            <stop stop-color="#CEBA95"/>
            <stop offset="1" stop-color="#AF8E61"/>
        </linearGradient>
        <linearGradient id="paint2_linear_78_2009" x1="111.129" y1="56.5175" x2="37.0345" y2="111.659" gradientUnits="userSpaceOnUse">
            <stop stop-color="#926D33"/>
            <stop offset="1" stop-color="#7B5628"/>
        </linearGradient>
        <clipPath id="clip0_78_2009">
            <rect width="128" height="100" fill="white"/>
        </clipPath>
        <clipPath id="clip1_78_2009">
            <rect width="117.714" height="97.7273" fill="white" transform="translate(-10.421 42.5684) rotate(-34.1247)"/>
        </clipPath>
    </defs>
<g clip-path="url(#clip0_78_2009)">
<g clip-path="url(#clip1_78_2009)">
<path d="M74.8349 69.6852L118.218 66.0382L86.341 4.39972L50.2477 1.45435L74.8349 69.6852Z" fill="url(#paint0_linear_78_2009)"/>
<path d="M74.8349 69.6853L29.9404 102.127L7.81536 38.8784L50.2477 1.4544L74.8349 69.6853Z" fill="url(#paint1_linear_78_2009)"/>
<path d="M46.074 90.4628L56.3763 83.0203L53.7239 75.932C53.4223 75.9625 53.146 75.8889 52.7723 76.1856C52.1998 76.6518 52.5465 77.0863 51.9681 77.5566C51.3857 78.0208 51.0349 77.5803 50.4625 78.0465C49.886 78.5067 50.2368 78.9472 49.6584 79.4174C49.0819 79.8777 48.7292 79.4472 48.1527 79.9074C47.5703 80.3717 47.927 80.8081 47.3486 81.2783C46.7762 81.7445 46.4195 81.3081 45.843 81.7683C45.2665 82.2285 45.6173 82.669 45.0389 83.1392C44.4605 83.6095 44.1097 83.169 43.5273 83.6333C43.4855 83.6616 43.4537 83.6918 43.426 83.728L46.074 90.4628Z" fill="#927B59"/>
<path d="M24.3073 31.4061C24.4151 31.0896 24.355 30.7825 24.7324 30.4398C25.2847 29.9438 25.6612 30.3581 26.2135 29.8621C26.7657 29.3662 26.3851 28.9459 26.9374 28.4499C27.4896 27.954 27.8662 28.3683 28.4184 27.8723C28.9707 27.3763 28.5901 26.9561 29.1423 26.4601C29.6946 25.9641 30.0711 26.3784 30.6234 25.8824C31.1756 25.3865 30.7951 24.9662 31.3473 24.4702C31.8995 23.9743 32.2761 24.3886 32.8284 23.8926C33.3806 23.3966 33 22.9764 33.5523 22.4804C34.0548 22.0268 34.4107 22.3334 34.8922 22.0158L32.9257 16.7493L22.2092 26.1766L24.3073 31.4061Z" fill="#927B59"/>
<path opacity="0.4" d="M93.3524 56.4755L100.444 56.2603L103.496 63.3473L96.4626 63.8796L93.3524 56.4755ZM100.245 56.6475L93.9226 56.8543L96.6975 63.4422L102.976 62.9782L100.245 56.6475Z" fill="black"/>
<path opacity="0.4" d="M84.5022 56.7435L92.3453 56.506L95.4678 63.9539L87.6751 64.5485L84.5022 56.7435ZM92.1102 56.9174L85.1145 57.1458L87.9458 64.0868L94.8976 63.5751L92.1102 56.9174Z" fill="black"/>
<path opacity="0.4" d="M74.661 57.0396L83.3853 56.7788L86.5645 64.6316L77.8929 65.2915L74.661 57.0396ZM83.1044 57.2125L75.3255 57.4674L78.2054 64.8015L85.9462 64.2333L83.1044 57.2125Z" fill="black"/>
<path opacity="0.4" d="M91.3756 59.4062C91.719 60.2342 91.3721 60.9562 90.5857 61.1066L91.1486 62.4641L91.5681 62.4406L91.7368 62.8566L92.3621 62.8154L92.5368 63.2274L90.0077 63.4024L89.835 62.9804L90.4762 62.9371L90.3075 62.521L90.733 62.4935L90.1702 61.136C89.2884 61.0815 88.3425 60.4183 87.997 59.5743L87.3202 57.9202L90.707 57.79L91.3756 59.4062Z" fill="black"/>
<path opacity="0.4" d="M84.7628 63.3226L84.9395 63.7505L78.8387 64.1811L78.6658 63.7332L84.7628 63.3226Z" fill="black"/>
<path opacity="0.4" d="M83.4939 63.0695L83.0305 63.1053L82.569 63.1312L81.225 59.7729L81.6906 59.753L82.1561 59.7331L83.4939 63.0695Z" fill="black"/>
<path opacity="0.4" d="M80.6932 63.2547L80.2197 63.2886L79.7363 63.3207L78.392 59.9105L78.8695 59.8825L79.3451 59.8645L80.6932 63.2547Z" fill="black"/>
<path opacity="0.4" d="M80.9628 57.9335L82.7114 59.3829L80.3937 59.4843L80.9628 57.9335Z" fill="black"/>
<path opacity="0.4" d="M78.1314 58.0352L79.9281 59.5042L77.5366 59.612L78.1314 58.0352Z" fill="black"/>
<path opacity="0.4" d="M97.4321 57.4321C99.0566 57.3745 100.382 58.2762 100.881 59.4505L98.3461 59.5775L99.3494 61.932C99.4428 62.1469 99.6858 62.3127 99.8956 62.3009C100.105 62.2892 100.194 62.0987 100.107 61.8797L100.025 61.6827L100.403 61.6615L100.484 61.8586C100.671 62.2884 100.484 62.6675 100.064 62.691C99.6486 62.7204 99.1526 62.387 98.9658 61.9572L97.9585 59.5968L95.7208 59.7134C95.2189 58.4972 95.7757 57.4939 97.4321 57.4321Z" fill="black"/>
<path opacity="0.5" d="M118.218 66.0383L130.748 64.9547L108.288 7.90697L86.341 4.3997L118.218 66.0383Z" fill="#E5CDA7"/>
<path opacity="0.5" d="M69.851 95.0513L85.1165 92.4008L130.748 64.9546L118.218 66.0383L69.851 95.0513Z" fill="#8A6633"/>
<path opacity="0.5" d="M90.6587 84.7584L90.7946 84.7533L98.4329 84.3937L106.99 79.2468L99.985 79.5771L99.9071 79.5778C99.774 79.7027 99.6329 79.8158 99.3641 79.9718C99.0615 80.1421 98.9139 80.1813 98.7543 80.2286C98.5847 80.2739 98.4051 80.3174 98.0667 80.512C97.7283 80.7065 97.5654 80.8517 97.4084 80.9928C97.2575 81.1299 97.1184 81.2589 96.8158 81.4292C96.5191 81.5955 96.3655 81.6387 96.2019 81.68C96.0324 81.7254 95.8528 81.7689 95.5143 81.9634C95.1759 82.158 95.013 82.3032 94.8501 82.4484C94.6991 82.5854 94.5601 82.7144 94.2634 82.8807C93.9668 83.047 93.8132 83.0902 93.6496 83.1315C93.48 83.1769 93.3044 83.2263 92.962 83.4149C92.6235 83.6095 92.4606 83.7547 92.3037 83.8958C92.1527 84.0329 92.0137 84.1619 91.717 84.3281C91.4204 84.4944 91.2668 84.5376 91.1032 84.5789C90.9777 84.6379 90.852 84.6709 90.6587 84.7584Z" fill="#927B59"/>
<g opacity="0.5">
<path opacity="0.5" d="M90.4786 82.6807L103.188 81.5277L103.646 81.2522L90.9364 82.4052L90.4786 82.6807Z" fill="#66340E"/>
</g>
<path d="M69.8509 95.0513L118.218 66.0383L74.835 69.6853L29.9404 102.127L69.8509 95.0513Z" fill="url(#paint2_linear_78_2009)"/>
<path d="M74.835 69.6853C71.1242 72.4347 67.4014 75.1663 63.6683 77.87L52.4714 86.0231L41.218 94.0927C37.471 96.7885 33.7117 99.4665 29.9364 102.121C33.6471 99.3712 37.37 96.6396 41.1031 93.9359L52.304 85.7888L63.5574 77.7191C67.3004 75.0173 71.0637 72.3453 74.835 69.6853Z" fill="#66340E"/>
<path d="M52.0645 86.1422L90.4786 82.6807L90.9364 82.4052L52.4264 85.8795L52.0645 86.1422Z" fill="#66340E"/>
<path d="M46.074 90.4628L54.9041 89.0087L55.028 89.0117C55.2234 88.9401 55.4307 88.8605 55.7511 88.6521C56.0774 88.4396 56.2024 88.3027 56.3214 88.1699C56.4385 88.0471 56.5396 87.9264 56.8301 87.7382C57.1207 87.55 57.2941 87.4847 57.4895 87.4131C57.6908 87.3376 57.8981 87.2579 58.2245 87.0455C58.5508 86.833 58.6758 86.6961 58.7948 86.5633C58.9119 86.4405 59.013 86.3198 59.3035 86.1316C59.594 85.9434 59.7675 85.8781 59.9569 85.8106C60.1582 85.735 60.3655 85.6554 60.6919 85.4429C61.0182 85.2305 61.1432 85.0936 61.2622 84.9608C61.3793 84.8379 61.4804 84.7173 61.7649 84.5331C62.0555 84.3449 62.2289 84.2796 62.4243 84.208C62.6256 84.1324 62.8329 84.0528 63.1593 83.8403C63.4856 83.6279 63.6106 83.491 63.7296 83.3582C63.8467 83.2354 63.9478 83.1147 64.2383 82.9265C64.5288 82.7383 64.7023 82.673 64.8917 82.6055C65.093 82.5299 65.3004 82.4502 65.6267 82.2378C65.7102 82.1812 65.7759 82.1367 65.8416 82.0922L65.7636 82.0928L56.3802 83.0003L46.074 90.4628Z" fill="#927B59"/>
</g>
</g>

</svg>
