<svg width="12" height="12" viewBox="0 0 12 12" fill="none" xmlns="http://www.w3.org/2000/svg">
    <defs>
        <linearGradient id="paint0_linear_78_2275" x1="-0.38961" y1="-0.38961" x2="12" y2="12" gradientUnits="userSpaceOnUse">
            <stop stop-color="#5961C3"/>
            <stop offset="1" stop-color="#3B42AD"/>
        </linearGradient>
        <clipPath id="clip0_78_2275">
            <rect width="12" height="12" fill="white"/>
        </clipPath>
    </defs>
<g clip-path="url(#clip0_78_2275)">
<path d="M3 0.375C3 0.275544 2.96049 0.180161 2.89016 0.109835C2.81984 0.0395088 2.72446 0 2.625 0C2.52554 0 2.43016 0.0395088 2.35984 0.109835C2.28951 0.180161 2.25 0.275544 2.25 0.375V0.75H1.5C1.10218 0.75 0.720644 0.908035 0.43934 1.18934C0.158035 1.47064 0 1.85218 0 2.25L0 3H12V2.25C12 1.85218 11.842 1.47064 11.5607 1.18934C11.2794 0.908035 10.8978 0.75 10.5 0.75H9.75V0.375C9.75 0.275544 9.71049 0.180161 9.64017 0.109835C9.56984 0.0395088 9.47446 0 9.375 0C9.27554 0 9.18016 0.0395088 9.10983 0.109835C9.03951 0.180161 9 0.275544 9 0.375V0.75H3V0.375ZM12 10.5V3.75H0V10.5C0 10.8978 0.158035 11.2794 0.43934 11.5607C0.720644 11.842 1.10218 12 1.5 12H10.5C10.8978 12 11.2794 11.842 11.5607 11.5607C11.842 11.2794 12 10.8978 12 10.5ZM9.375 5.25H10.125C10.2245 5.25 10.3198 5.28951 10.3902 5.35984C10.4605 5.43016 10.5 5.52554 10.5 5.625V6.375C10.5 6.47446 10.4605 6.56984 10.3902 6.64017C10.3198 6.71049 10.2245 6.75 10.125 6.75H9.375C9.27554 6.75 9.18016 6.71049 9.10983 6.64017C9.03951 6.56984 9 6.47446 9 6.375V5.625C9 5.52554 9.03951 5.43016 9.10983 5.35984C9.18016 5.28951 9.27554 5.25 9.375 5.25Z" fill="url(#paint0_linear_78_2275)"/>
</g>

</svg>
