<svg width="18" height="18" viewBox="0 0 18 18" fill="none" xmlns="http://www.w3.org/2000/svg">
    <defs>
        <linearGradient id="paint0_linear_78_2109" x1="3.71574" y1="1.01313" x2="18.2671" y2="11.199" gradientUnits="userSpaceOnUse">
            <stop stop-color="#5961C3"/>
            <stop offset="1" stop-color="#3B42AD"/>
        </linearGradient>
    </defs>
<path d="M5.82904 1.82924L6.63604 1.57124C7.39279 1.32974 8.20129 1.72049 8.52529 2.48399L9.17029 4.00499C9.45079 4.66724 9.29479 5.44649 8.78479 5.93099L7.36354 7.27949C7.45129 8.08649 7.72279 8.88074 8.17729 9.66224C8.60889 10.4183 9.18781 11.0802 9.87979 11.6085L11.5868 11.0385C12.2333 10.8232 12.9383 11.0715 13.3343 11.6542L14.259 13.0117C14.7203 13.6897 14.637 14.6242 14.0648 15.1987L13.452 15.8145C12.8415 16.4272 11.9693 16.65 11.163 16.398C9.25804 15.804 7.50829 14.0407 5.91079 11.1082C4.31104 8.17124 3.74629 5.67824 4.21729 3.63224C4.41529 2.77124 5.02804 2.08499 5.82904 1.82924V1.82924Z" fill="url(#paint0_linear_78_2109)"/>

</svg>
