<svg width="40" height="27" viewBox="0 0 40 27" fill="none" xmlns="http://www.w3.org/2000/svg">
<rect width="40" height="27" rx="6" fill="white"/>
<rect x="0.5" y="0.5" width="39" height="26" rx="5.5" stroke="black" stroke-opacity="0.2"/>
<g clip-path="url(#clip0_78_2277)">
<path fill-rule="evenodd" clip-rule="evenodd" d="M20.006 18.7223C21.2318 19.887 22.8779 20.5935 24.6685 20.5935C28.5139 20.5935 31.6262 17.3591 31.6262 13.381C31.6262 9.3908 28.5139 6.15625 24.6685 6.15625C22.8779 6.15625 21.2318 6.86261 20.006 8.02753C18.6 9.35347 17.7107 11.2619 17.7107 13.381C17.7108 15.5001 18.6 17.4087 20.006 18.7223V18.7223Z" fill="#E9B040"/>
<path fill-rule="evenodd" clip-rule="evenodd" d="M30.7012 17.3962C30.7012 17.2722 30.7973 17.1732 30.9174 17.1732C31.0495 17.1732 31.1455 17.2724 31.1455 17.3962C31.1455 17.5327 31.0494 17.6317 30.9174 17.6317C30.7973 17.6317 30.7012 17.5327 30.7012 17.3962ZM30.9174 17.5823C31.0136 17.5823 31.0975 17.4954 31.0975 17.3963C31.0975 17.2973 31.0135 17.2229 30.9174 17.2229C30.8331 17.2229 30.7493 17.2973 30.7493 17.3963C30.7493 17.4954 30.8333 17.5823 30.9174 17.5823ZM30.8934 17.5079H30.8453V17.2971H30.9293C30.9415 17.2971 30.9655 17.2971 30.9774 17.3097C31.0014 17.3219 31.0014 17.3345 31.0014 17.3593C31.0014 17.3841 30.9896 17.4089 30.9655 17.4089L31.0136 17.5081H30.9533L30.9293 17.4211H30.8934V17.5079V17.3839H30.9415C30.9533 17.3839 30.9533 17.3714 30.9533 17.3591C30.9533 17.3466 30.9533 17.3466 30.9415 17.3343H30.8934V17.5079V17.5079Z" fill="#E9B040"/>
<path fill-rule="evenodd" clip-rule="evenodd" d="M22.253 12.6128C22.2289 12.3526 22.1809 12.1048 22.1328 11.8445H17.8788C17.9269 11.5843 17.999 11.3365 18.071 11.0885H21.9285C21.8448 10.8276 21.7486 10.5712 21.6402 10.3202H18.3715C18.4917 10.0577 18.6241 9.80127 18.7681 9.55182H21.2317C21.0732 9.28716 20.8965 9.03453 20.703 8.79587H19.2969C19.5144 8.52196 19.7514 8.26513 20.0059 8.02753C18.7682 6.875 17.1338 6.15625 15.3313 6.15625C11.4979 6.15625 8.37354 9.3908 8.37354 13.381C8.37354 17.3591 11.4979 20.5935 15.3313 20.5935C17.1338 20.5935 18.7681 19.887 20.0059 18.7223C20.2565 18.4888 20.4896 18.2361 20.703 17.9662H19.2969C19.1046 17.7184 18.9364 17.4706 18.7681 17.1978H21.2317C21.3866 16.9528 21.5232 16.6959 21.6403 16.4295H18.3715C18.2633 16.1817 18.1553 15.9339 18.071 15.6734H21.9285C22.0125 15.4256 22.0728 15.1655 22.1326 14.905C22.1807 14.6572 22.2288 14.3972 22.2528 14.1367C22.2772 13.8854 22.2893 13.6331 22.289 13.3806C22.289 13.1208 22.277 12.8606 22.253 12.6128V12.6128Z" fill="#CC2131"/>
<path fill-rule="evenodd" clip-rule="evenodd" d="M30.7012 15.0542C30.7012 14.9179 30.7973 14.8189 30.9174 14.8189C31.0495 14.8189 31.1455 14.9181 31.1455 15.0542C31.1455 15.1781 31.0494 15.2897 30.9174 15.2897C30.7973 15.2897 30.7012 15.178 30.7012 15.0542ZM30.9174 15.2276C31.0136 15.2276 31.0975 15.1532 31.0975 15.0542C31.0975 14.9551 31.0135 14.8807 30.9174 14.8807C30.8331 14.8807 30.7493 14.9551 30.7493 15.0542C30.7493 15.1532 30.8333 15.2276 30.9174 15.2276ZM30.8934 15.1532H30.8453V14.955H30.9774C31.0014 14.9675 31.0014 14.9923 31.0014 15.0171C31.0014 15.0294 30.9896 15.0542 30.9655 15.0667L31.0136 15.1533H30.9533L30.9293 15.0789H30.8934V15.1532V15.0418H30.9174C30.9293 15.0418 30.9415 15.0418 30.9415 15.0292C30.9533 15.0292 30.9533 15.017 30.9533 15.0044C30.9533 15.0044 30.9533 14.9922 30.9415 14.9922C30.9415 14.9796 30.9293 14.9922 30.9174 14.9922H30.8934V15.1532V15.1532Z" fill="white"/>
<path fill-rule="evenodd" clip-rule="evenodd" d="M17.6385 15.4632C17.4103 15.525 17.242 15.5623 17.0738 15.5623C16.7133 15.5623 16.4969 15.3268 16.4969 14.9054C16.4969 14.8188 16.5089 14.732 16.5209 14.6328L16.569 14.348L16.6051 14.1124L16.9295 12.0801H17.6506L17.5664 12.5263H18.0231L17.9149 13.2699H17.4582L17.266 14.4842C17.254 14.5463 17.254 14.5834 17.254 14.6082C17.254 14.7694 17.3261 14.8312 17.5063 14.8312C17.5904 14.8312 17.6624 14.8189 17.7346 14.8064L17.6385 15.4632V15.4632ZM19.9699 15.4384C19.7056 15.5128 19.4653 15.5498 19.2008 15.5498C18.3836 15.5498 17.9149 15.1036 17.9149 14.224C17.9149 13.1953 18.4678 12.4518 19.2367 12.4518C19.8495 12.4518 20.2461 12.8731 20.2461 13.5298C20.2461 13.7531 20.2221 13.9637 20.1621 14.2611H18.66C18.6479 14.3107 18.6479 14.3354 18.6479 14.3602C18.6479 14.7072 18.8762 14.8806 19.3088 14.8806C19.5852 14.8806 19.8255 14.8188 20.09 14.695L19.9699 15.4384ZM19.5252 13.6663V13.5175C19.5252 13.2697 19.393 13.1333 19.1647 13.1333C18.9243 13.1333 18.7561 13.3192 18.684 13.6661H19.5252V13.6663V13.6663ZM11.8704 15.5002H11.1253L11.5579 12.6873L10.5846 15.5002H10.068L10.0078 12.6997L9.55116 15.5002H8.81812L9.4069 11.8446H10.5005L10.5245 14.1002L11.2575 11.8446H12.4593L11.8704 15.5002V15.5002ZM13.6851 14.1744C13.613 14.1619 13.5889 14.1619 13.5408 14.1619C13.1082 14.1619 12.8919 14.3353 12.8919 14.608C12.8919 14.794 13.0001 14.918 13.1683 14.918C13.5288 14.918 13.6729 14.608 13.6851 14.1744ZM14.2859 15.5002H13.637L13.649 15.1906C13.4807 15.4258 13.2524 15.5498 12.8559 15.5498C12.4954 15.5498 12.1829 15.2154 12.1829 14.732C12.1829 14.5958 12.207 14.472 12.243 14.348C12.3631 13.8893 12.8078 13.6044 13.4927 13.5919C13.5769 13.5919 13.709 13.5919 13.8292 13.6044C13.8531 13.5053 13.8531 13.4679 13.8531 13.4061C13.8531 13.2077 13.697 13.1457 13.3485 13.1457C13.1322 13.1457 12.8918 13.1829 12.7236 13.2449L12.6154 13.2697L12.5673 13.282L12.6755 12.6128C13.024 12.5012 13.2763 12.4518 13.5528 12.4518C14.2017 12.4518 14.5502 12.7616 14.5502 13.3316C14.5502 13.4803 14.5622 13.5919 14.5142 13.9141L14.346 14.9798L14.322 15.1658L14.3099 15.3145L14.2979 15.4137L14.2859 15.5002V15.5002ZM23.5991 12.551C23.8153 12.551 24.0077 12.6129 24.272 12.7492L24.4041 11.956C24.332 11.9188 24.3079 11.9188 24.2119 11.8816L23.9116 11.7949C23.8154 11.7701 23.6954 11.7577 23.563 11.7577C23.1903 11.7577 22.9741 11.7701 22.7459 11.9064C22.6257 11.9932 22.4694 12.1048 22.3011 12.303L22.205 12.2782L21.4358 12.8358L21.4721 12.526H20.6788L20.2103 15.5001H20.9676L21.2438 13.9017C21.2438 13.9017 21.3521 13.6784 21.4001 13.6043C21.5443 13.4183 21.6644 13.4183 21.8205 13.4183H21.8808C21.8556 13.6072 21.8435 13.7977 21.8446 13.9883C21.8446 14.9549 22.3733 15.5622 23.1905 15.5622C23.3948 15.5622 23.5753 15.5374 23.8515 15.463L23.9839 14.6204C23.7436 14.7567 23.5272 14.8187 23.3469 14.8187C22.9024 14.8187 22.6377 14.4717 22.6377 13.9265C22.6375 13.1209 23.0342 12.551 23.5991 12.551V12.551ZM29.9798 11.8446L29.8117 12.8855C29.6314 12.6005 29.415 12.4642 29.1267 12.4642C28.7299 12.4642 28.3575 12.6996 28.1291 13.1457V13.1335L27.6485 12.8359L27.6966 12.5262H26.8915L26.4348 15.5002H27.1798L27.4323 13.9018C27.4323 13.9018 27.6245 13.6785 27.6726 13.6044C27.7928 13.4557 27.9129 13.4307 28.0091 13.4185C27.925 13.6663 27.877 13.9637 27.877 14.2984C27.877 15.042 28.2493 15.5376 28.8021 15.5376C29.0786 15.5376 29.2948 15.4384 29.499 15.2028L29.4631 15.5002H30.1723L30.749 11.8446H29.9798V11.8446ZM29.0547 14.794C28.8022 14.794 28.6701 14.5958 28.6701 14.2115C28.6701 13.6289 28.9104 13.2077 29.2587 13.2077C29.5231 13.2077 29.6555 13.4185 29.6555 13.7903C29.6555 14.385 29.4152 14.794 29.0547 14.794V14.794ZM25.5819 14.1744C25.5098 14.1619 25.4858 14.1619 25.4377 14.1619C25.0048 14.1619 24.7885 14.3353 24.7885 14.608C24.7885 14.794 24.8968 14.918 25.065 14.918C25.4255 14.918 25.5698 14.608 25.5819 14.1744ZM26.1827 15.5002H25.5217L25.5457 15.1906C25.3776 15.4258 25.149 15.5498 24.7527 15.5498C24.38 15.5498 24.0557 15.2276 24.0557 14.732C24.0557 14.0258 24.5723 13.592 25.3894 13.592C25.4737 13.592 25.6057 13.592 25.714 13.6046C25.7381 13.5054 25.7502 13.4681 25.7502 13.4062C25.7502 13.2079 25.594 13.1459 25.2334 13.1459C25.0291 13.1459 24.7768 13.1831 24.6086 13.2451L24.5124 13.2699L24.4643 13.2821L24.5724 12.6129C24.921 12.5014 25.1735 12.4519 25.4497 12.4519C26.0986 12.4519 26.4351 12.7617 26.4351 13.3317C26.4351 13.4805 26.4591 13.592 26.3991 13.9142L26.2428 14.98L26.2188 15.1659L26.1948 15.3147L26.1829 15.4139V15.5002H26.1827V15.5002ZM15.86 13.1581C16.0043 13.1581 16.2085 13.1705 16.4249 13.2077L16.5331 12.5138C16.3167 12.489 16.0283 12.4518 15.86 12.4518C15.0189 12.4518 14.7426 12.9227 14.7426 13.4679C14.7426 13.8274 14.8987 14.0875 15.3073 14.2857C15.6077 14.4345 15.6558 14.4591 15.6558 14.5956C15.6558 14.7813 15.4997 14.893 15.2111 14.893C14.9829 14.893 14.7665 14.8557 14.5262 14.7691L14.442 15.4505L14.4539 15.463L14.5982 15.4878C14.6463 15.5001 14.7064 15.5126 14.7905 15.5249C14.9707 15.5374 15.127 15.5497 15.2232 15.5497C16.0644 15.5497 16.4129 15.2152 16.4129 14.5583C16.4129 14.1495 16.2205 13.9017 15.848 13.7283C15.5236 13.5794 15.4875 13.5548 15.4875 13.4183C15.4875 13.2821 15.6318 13.1581 15.86 13.1581V13.1581Z" fill="#1B3771"/>
<path fill-rule="evenodd" clip-rule="evenodd" d="M24.6083 11.7204L24.4759 12.5136C24.2116 12.3772 24.0193 12.3153 23.803 12.3153C23.2381 12.3153 22.8417 12.8853 22.8417 13.6909C22.8417 14.2486 23.106 14.583 23.5508 14.583C23.7309 14.583 23.9473 14.5212 24.1876 14.3974L24.0555 15.2274C23.779 15.3018 23.5988 15.3391 23.3944 15.3391C22.5774 15.3391 22.0726 14.7318 22.0726 13.753C22.0726 12.4517 22.7696 11.5346 23.7669 11.5346C23.899 11.5346 24.0191 11.547 24.1153 11.5718L24.4158 11.6462C24.5121 11.6834 24.5362 11.6958 24.6083 11.7204V11.7204ZM22.1808 12.2657H22.1086C21.8565 12.2657 21.7122 12.3897 21.4838 12.749L21.5559 12.2904H20.8708L20.4024 15.2646H21.1596C21.4359 13.4429 21.508 13.1331 21.8685 13.1331H21.9166C21.9887 12.7738 22.0847 12.5134 22.205 12.278L22.1808 12.2657V12.2657ZM17.8307 15.2274C17.6265 15.3018 17.4582 15.3266 17.2901 15.3266C16.9055 15.3266 16.6891 15.1036 16.6891 14.67C16.6891 14.5956 16.7011 14.4966 16.7131 14.4096L16.7612 14.1122L16.7973 13.877L17.1217 11.8444H17.8668L17.7827 12.2905H18.1672L18.071 13.0217H17.6865L17.4823 14.261C17.4702 14.3106 17.4702 14.3479 17.4702 14.385C17.4702 14.5337 17.5424 14.5957 17.7226 14.5957C17.8067 14.5957 17.8787 14.5957 17.9268 14.5709L17.8307 15.2274V15.2274ZM14.9346 13.2323C14.9346 13.6042 15.1028 13.8643 15.4994 14.0626C15.8118 14.2114 15.8599 14.2609 15.8599 14.3848C15.8599 14.5708 15.7276 14.6574 15.4272 14.6574C15.199 14.6574 14.9946 14.6204 14.7543 14.546L14.6461 15.2274L14.6822 15.24L14.8144 15.2648C14.8624 15.277 14.9226 15.2896 15.0186 15.2896C15.1868 15.3143 15.3311 15.3143 15.4272 15.3143C16.2203 15.3143 16.5929 15.0044 16.5929 14.323C16.5929 13.9139 16.4368 13.6783 16.0643 13.4927C15.7398 13.3439 15.7037 13.3068 15.7037 13.1705C15.7037 13.0094 15.836 12.9351 16.0763 12.9351C16.2205 12.9351 16.4248 12.9475 16.6171 12.9723L16.7252 12.2907C16.533 12.2535 16.2326 12.2287 16.0643 12.2287C15.223 12.2286 14.9226 12.6871 14.9346 13.2323V13.2323ZM30.3645 15.2648H29.6553L29.6915 14.9796C29.4872 15.2026 29.2708 15.3018 28.9943 15.3018C28.4416 15.3018 28.0811 14.8187 28.0811 14.0752C28.0811 13.0837 28.6459 12.241 29.3067 12.241C29.6072 12.241 29.8235 12.3773 30.028 12.6499L30.1962 11.609H30.9412L30.3645 15.2648V15.2648ZM29.2588 14.5708C29.6074 14.5708 29.8477 14.1494 29.8477 13.5669C29.8477 13.1827 29.7153 12.9844 29.451 12.9844C29.1145 12.9844 28.8623 13.3933 28.8623 13.9759C28.8623 14.3726 28.9944 14.5708 29.2588 14.5708V14.5708ZM20.1379 15.2026C19.8735 15.2896 19.6332 15.3266 19.3568 15.3266C18.5156 15.3266 18.0829 14.8682 18.0829 13.9883C18.0829 12.9721 18.6358 12.2162 19.3929 12.2162C20.0177 12.2162 20.4141 12.6375 20.4141 13.2943C20.4141 13.5174 20.3901 13.7282 20.318 14.0379H18.8281C18.8161 14.0752 18.8161 14.1 18.8161 14.1248C18.8161 14.4718 19.0445 14.6452 19.477 14.6452C19.7534 14.6452 19.9937 14.5956 20.2581 14.4592L20.1379 15.2026V15.2026ZM19.7173 13.4305V13.2819C19.7173 13.0341 19.5851 12.8977 19.3568 12.8977C19.1165 12.8977 18.9482 13.0837 18.8761 13.4305H19.7173ZM12.0626 15.2648H11.3175L11.7501 12.4516L10.7768 15.2648H10.26L10.1999 12.4764L9.74337 15.2648H9.04639L9.63517 11.609H10.7167L10.7528 13.8768L11.4736 11.609H12.6514L12.0626 15.2648V15.2648ZM13.9252 13.9387C13.8531 13.9387 13.817 13.9264 13.7569 13.9264C13.3363 13.9264 13.1201 14.0874 13.1201 14.3848C13.1201 14.5708 13.2162 14.6822 13.3844 14.6822C13.6968 14.6822 13.9132 14.3848 13.9252 13.9387ZM14.478 15.2648H13.853L13.865 14.9548C13.6726 15.2026 13.4203 15.3143 13.0718 15.3143C12.6632 15.3143 12.3869 14.9922 12.3869 14.5088C12.3869 13.7778 12.8675 13.3564 13.7087 13.3564C13.7929 13.3564 13.9011 13.3688 14.0211 13.3811C14.0452 13.282 14.0452 13.2449 14.0452 13.1953C14.0452 12.9971 13.9129 12.9227 13.5644 12.9227C13.3482 12.9227 13.1078 12.9475 12.9396 12.9971L12.8314 13.0342L12.7593 13.0466L12.8675 12.3775C13.24 12.2659 13.4923 12.2287 13.7688 12.2287C14.4177 12.2287 14.7662 12.5261 14.7662 13.0961C14.7662 13.2449 14.7542 13.3564 14.7061 13.691L14.5378 14.7445L14.5137 14.9302L14.5017 15.0789L14.4897 15.1907L14.478 15.2648V15.2648ZM25.8221 13.9387C25.7378 13.9387 25.7019 13.9264 25.6539 13.9264C25.2213 13.9264 25.0048 14.0874 25.0048 14.3848C25.0048 14.5708 25.1131 14.6822 25.2813 14.6822C25.5818 14.6822 25.8099 14.3848 25.8221 13.9387V13.9387ZM26.3748 15.2648H25.75L25.7618 14.9548C25.5696 15.2026 25.3173 15.3143 24.9688 15.3143C24.5602 15.3143 24.2837 14.9922 24.2837 14.5088C24.2837 13.7778 24.7643 13.3564 25.6056 13.3564C25.6899 13.3564 25.7981 13.3688 25.9061 13.3811C25.9302 13.282 25.9423 13.2449 25.9423 13.1953C25.9423 12.9971 25.8099 12.9227 25.4617 12.9227C25.2452 12.9227 24.993 12.9475 24.8247 12.9971L24.7285 13.0342L24.6564 13.0466L24.7645 12.3775C25.1371 12.2659 25.3893 12.2287 25.6658 12.2287C26.3147 12.2287 26.6512 12.5261 26.6512 13.0961C26.6512 13.2449 26.6512 13.3564 26.5912 13.691L26.4349 14.7445L26.4109 14.9302L26.3868 15.0789L26.375 15.1907V15.2648H26.3748V15.2648ZM28.3936 12.2657H28.3215C28.0693 12.2657 27.9251 12.3897 27.6966 12.749L27.7688 12.2904H27.0837L26.627 15.2646H27.3721C27.6486 13.4429 27.7207 13.1331 28.0812 13.1331H28.1293C28.2014 12.7738 28.2974 12.5134 28.4177 12.278L28.3936 12.2657V12.2657Z" fill="white"/>
</g>
<defs>
<clipPath id="clip0_78_2277">
<rect width="22" height="22.6875" fill="white" transform="translate(9 2.03125)"/>
</clipPath>
</defs>
</svg>
