<svg width="36" height="36" viewBox="0 0 36 36" fill="none" xmlns="http://www.w3.org/2000/svg">
    <defs>
        <linearGradient id="paint0_linear_79_4001" x1="4.15584" y1="4.15584" x2="31" y2="31" gradientUnits="userSpaceOnUse">
            <stop stop-color="#5961C3"/>
            <stop offset="1" stop-color="#3B42AD"/>
        </linearGradient>
    </defs>
    <path d="M11.5 5.8125C11.5 5.59701 11.4144 5.39035 11.262 5.23798C11.1097 5.0856 10.903 5 10.6875 5C10.472 5 10.2653 5.0856 10.113 5.23798C9.9606 5.39035 9.875 5.59701 9.875 5.8125V6.625H8.25C7.38805 6.625 6.5614 6.96741 5.9519 7.5769C5.34241 8.1864 5 9.01305 5 9.875L5 11.5H31V9.875C31 9.01305 30.6576 8.1864 30.0481 7.5769C29.4386 6.96741 28.612 6.625 27.75 6.625H26.125V5.8125C26.125 5.59701 26.0394 5.39035 25.887 5.23798C25.7347 5.0856 25.528 5 25.3125 5C25.097 5 24.8903 5.0856 24.738 5.23798C24.5856 5.39035 24.5 5.59701 24.5 5.8125V6.625H11.5V5.8125ZM31 27.75V13.125H5V27.75C5 28.612 5.34241 29.4386 5.9519 30.0481C6.5614 30.6576 7.38805 31 8.25 31H27.75C28.612 31 29.4386 30.6576 30.0481 30.0481C30.6576 29.4386 31 28.612 31 27.75ZM25.3125 16.375H26.9375C27.153 16.375 27.3597 16.4606 27.512 16.613C27.6644 16.7653 27.75 16.972 27.75 17.1875V18.8125C27.75 19.028 27.6644 19.2347 27.512 19.387C27.3597 19.5394 27.153 19.625 26.9375 19.625H25.3125C25.097 19.625 24.8903 19.5394 24.738 19.387C24.5856 19.2347 24.5 19.028 24.5 18.8125V17.1875C24.5 16.972 24.5856 16.7653 24.738 16.613C24.8903 16.4606 25.097 16.375 25.3125 16.375Z" fill="url(#paint0_linear_79_4001)"/>

</svg>
