<svg width="260" height="269" viewBox="0 0 260 269" fill="none" xmlns="http://www.w3.org/2000/svg">
<g clip-path="url(#clip0_78_1838)">
<path d="M240.922 159.582C228.747 163.845 216.573 167.984 204.335 171.997C201.825 172.812 199.315 173.627 196.742 174.442C194.169 175.258 191.533 176.073 188.96 176.951C182.872 178.894 176.785 180.776 170.635 182.657C165.175 184.35 159.715 185.98 154.255 187.548C136.809 192.689 119.3 197.517 101.728 202.095C96.4567 203.474 91.1852 204.791 85.8509 206.171C80.8931 207.425 75.8726 208.616 70.9148 209.87C70.4755 209.996 70.0362 210.058 69.5342 210.184C59.8069 212.504 50.0169 214.761 40.2269 216.956C32.5706 218.649 24.9143 220.279 17.1953 221.909C14.0575 222.536 10.9196 223.226 7.71907 223.853C5.02054 192.689 6.77772 157.575 21.4627 129.923C51.6486 73.3636 117.543 56.6844 174.275 83.2709C181.68 86.7196 189.274 91.1089 196.553 96.3133C218.267 111.801 237.219 134.249 240.922 159.582Z" fill="#A5E8F1"/>
<path d="M240.922 159.582C228.747 163.845 216.573 167.984 204.335 171.997C201.825 172.812 199.315 173.627 196.741 174.442L182.119 114.874L178.542 100.326L196.428 96.3133C218.267 111.801 237.219 134.249 240.922 159.582Z" fill="#DFFDFF"/>
<path d="M189.022 176.951C182.935 178.894 176.848 180.776 170.698 182.657L151.996 118.824L171.011 112.804L189.022 176.951Z" fill="#DFFDFF"/>
<path d="M204.398 171.997C201.888 172.812 199.377 173.627 196.804 174.442C194.231 175.258 191.595 176.073 189.022 176.951L171.011 112.804L182.182 114.936L187.014 115.877L204.398 171.997Z" fill="#71B4BD"/>
<path d="M71.0403 209.807C70.601 209.933 70.1618 209.996 69.6597 210.121C59.9324 212.441 50.1424 214.698 40.3524 216.893C39.4738 210.372 38.658 203.913 37.7794 197.392C35.2692 178.393 32.8217 159.456 30.3114 140.52C39.5366 137.572 48.6363 134.625 57.7987 131.678C60.7483 145.849 63.5096 160.334 65.8943 174.944C67.9025 186.607 69.5969 198.27 71.0403 209.807Z" fill="#DFFDFF"/>
<path d="M154.318 187.548C136.872 192.689 119.363 197.517 101.791 202.095C96.5194 203.474 91.2479 204.791 85.9136 206.171C80.9558 207.425 75.9353 208.616 70.9776 209.87C70.5383 209.996 70.099 210.058 69.5969 210.184L64.3881 175.446L57.8615 131.678H83.5916L88.5494 162.466L146.348 150.928L154.318 187.548Z" fill="#71B4BD"/>
<path d="M85.9763 206.108C81.0185 207.362 75.998 208.553 71.0403 209.807C70.601 209.933 70.1617 209.996 69.6596 210.121C59.9324 212.441 50.1424 214.698 40.3524 216.893C32.6961 218.586 25.0398 220.216 17.3207 221.847L13.3043 203.474L37.7166 197.392L47.8831 194.884L45.4984 180.148L64.3253 175.383L65.8315 175.007L77.8807 171.997L85.9763 206.108Z" fill="#528394"/>
<path d="M101.854 202.095C96.5821 203.474 91.3106 204.791 85.9763 206.171L78.0062 171.997L93.1933 170.68L101.854 202.095Z" fill="#5E98AB"/>
<path d="M147.917 89.7294C145.971 88.7261 145.093 85.9671 146.411 84.086C147.729 82.2676 150.741 82.0795 152.31 83.7098C152.059 82.393 151.871 80.7 151.996 79.3832C152.122 78.0664 152.686 76.7496 153.753 75.9972C154.82 75.2447 156.452 75.3075 157.33 76.248C157.33 74.4296 157.832 71.5452 158.774 70.0403C159.715 68.5354 161.472 67.4068 163.23 67.5322C165.991 67.6576 167.811 70.4165 168.815 72.9247C169.756 75.3702 170.384 77.8783 170.635 80.5119C170.823 78.6308 172.643 78.1918 174.463 78.4427C176.408 78.7562 177.287 80.6373 177.538 82.3303C184.19 81.4524 190.152 78.0664 196.679 76.6869C197.495 76.4988 198.499 76.4361 199.001 77.0632C199.44 77.6902 199.189 78.6308 198.561 79.0697C193.541 83.1455 185.696 83.8352 179.672 85.6536C172.266 87.911 164.861 90.1683 157.456 92.3002C151.933 93.9305 146.348 95.4981 140.825 97.0657C140.01 97.3165 130.408 100.64 130.345 98.9469C130.22 95.4981 135.428 94.244 137.939 93.0527C141.202 91.6732 144.842 91.297 147.917 89.7294Z" fill="#FBFAF6"/>
<path d="M4.64397 141.084C3.57711 141.272 2.4475 141.397 1.31788 141.523C0.941341 141.586 0.502045 141.586 0.25102 141.335C-0.0627626 141.021 -6.16166e-06 140.52 0.188263 140.143C0.439289 139.767 0.815828 139.579 1.19237 139.328C2.25923 138.701 15.8146 132.305 15.9401 132.556C15.3126 131.239 14.1202 129.609 15.1871 128.104C15.9401 127.038 17.7601 126.976 18.5759 128.041C18.0739 126.599 18.5759 124.279 19.1407 122.837C19.7055 121.395 21.1489 120.266 22.6551 120.266C24.224 120.329 25.6674 121.834 25.3536 123.339C23.973 121.458 25.7929 117.946 27.5501 116.441C29.3073 114.936 32.0058 114.874 34.014 116.002C36.0222 117.131 37.3401 119.263 37.7166 121.52C38.0304 123.527 37.5911 125.596 37.1518 127.54C39.9131 127.289 42.5489 126.223 45.2474 125.596C47.0673 125.157 49.1383 124.969 50.7072 125.847C48.3225 128.167 44.3688 128.731 41.2937 129.734C34.1395 132.117 27.048 134.437 19.9565 136.82C14.7478 138.638 9.85276 140.269 4.64397 141.084Z" fill="#FBFAF6"/>
<path d="M257.804 214.071C257.113 214.448 256.172 214.949 255.105 215.576C236.341 225.546 160.343 260.66 152.687 263.858C151.118 264.485 149.109 265.489 146.85 266.366C142.645 268.122 137.939 269.69 135.115 268.749C125.952 265.551 94.6368 229.747 92.1265 221.784C91.0597 218.398 96.5822 215.639 99.9711 213.883C100.41 213.695 100.787 213.444 101.101 213.319C111.142 207.738 191.282 176.449 198.122 174.881C200.57 174.317 203.08 173.376 205.59 172.749C209.544 171.746 213.498 171.433 217.137 174.254C223.852 179.521 246.57 196.577 250.9 200.339C254.038 203.035 264.519 210.121 257.804 214.071Z" fill="#EDD8D1"/>
<path d="M92.001 195.762C91.6872 198.646 90.8714 210.56 93.5699 213.883C95.1388 215.764 120.179 242.915 124.258 246.301C126.768 248.37 129.906 251.129 133.232 251.506C144.089 252.76 248.076 199.9 251.026 198.583C253.16 197.643 251.716 189.617 251.277 185.98L92.001 195.762Z" fill="#564953"/>
<path d="M247.072 196.765C227.241 205.857 206.72 216.203 186.575 225.797C184.127 226.988 181.68 228.117 179.232 229.246C167.246 234.889 155.511 240.219 144.089 244.796C143.963 243.354 143.963 240.093 143.712 238.839C155.322 233.51 166.932 228.117 178.605 222.787C201.385 212.316 224.041 201.531 246.633 191.122C246.947 192.815 247.072 194.884 247.072 196.765Z" fill="#BFAFA7"/>
<path d="M179.232 229.246C167.246 234.889 155.51 240.219 144.089 244.796C143.963 243.354 143.963 240.093 143.712 238.839C155.322 233.51 166.932 228.117 178.605 222.787L179.232 229.246Z" fill="#7A9C02"/>
<path d="M249.269 189.742C248.641 190.118 247.763 190.62 246.696 191.184C228.873 200.59 156.828 233.948 149.549 236.958C148.105 237.585 146.16 238.463 144.026 239.341C140.072 240.971 135.554 242.539 132.918 241.598C124.258 238.526 94.5112 204.603 92.1265 197.079C91.1224 193.818 96.3939 191.247 99.5945 189.554C99.971 189.366 100.348 189.178 100.661 188.99C110.2 183.723 186.261 154.001 192.725 152.496C195.047 151.932 197.432 151.054 199.817 150.49C203.582 149.549 207.285 149.235 210.736 151.932C217.137 156.948 238.663 173.126 242.805 176.7C245.754 179.208 255.67 185.98 249.269 189.742Z" fill="#77758A"/>
<path d="M246.696 191.122C236.655 196.452 209.356 209.369 186.198 220.154C183.625 221.345 181.178 222.474 178.73 223.602C178.668 223.602 178.668 223.665 178.605 223.665C163.983 230.437 152.247 235.767 149.486 236.896C148.042 237.523 146.097 238.4 143.963 239.278C141.579 236.269 139.131 233.321 136.621 230.374C135.177 228.681 133.734 226.988 132.291 225.358C121.685 213.068 110.64 201.092 99.469 189.491C99.8455 189.303 100.222 189.115 100.536 188.927C104.301 186.858 118.484 180.901 134.675 174.442C137.186 173.439 139.696 172.436 142.269 171.433C156.766 165.664 171.827 159.895 181.743 156.196C184.504 155.192 186.889 154.314 188.709 153.687C190.654 152.998 191.972 152.559 192.662 152.433C194.984 151.869 197.369 150.991 199.754 150.427C202.139 152.496 204.461 154.565 206.845 156.635C208.791 158.328 210.736 160.021 212.682 161.714C220.212 168.235 227.743 174.756 235.274 181.214L242.24 187.297C243.746 188.551 245.252 189.868 246.696 191.122Z" fill="#E2CEC5"/>
<path d="M195.424 174.944L162.414 193.755L142.332 171.433C156.828 165.664 171.89 159.895 181.805 156.196L195.424 174.944Z" fill="#8CB302"/>
<path d="M107.188 212.88C108.318 214.949 116.037 223.414 117.229 224.355C118.735 225.546 124.321 220.969 124.697 220.028C125.074 219.025 115.472 209.431 114.154 208.428C112.962 207.487 106.247 211.124 107.188 212.88Z" fill="#403A44"/>
<path d="M108.694 213.444C108.694 213.444 116.978 222.474 117.794 222.913C118.61 223.352 122.689 220.342 123.065 219.715C123.442 219.088 114.656 210.372 114.091 209.996C113.526 209.619 107.941 212.566 108.694 213.444Z" fill="#5C606C"/>
<path d="M229.563 171.182C226.551 168.423 223.539 165.727 220.526 162.968C219.648 162.152 218.267 163.469 219.208 164.284C222.221 167.043 225.233 169.74 228.245 172.499C229.124 173.376 230.442 171.997 229.563 171.182Z" fill="#BDCBD8"/>
<path d="M242.303 187.297C242.303 187.297 208.1 211.814 187.642 188.3L168.125 200.088L186.198 220.154C183.625 221.345 181.178 222.474 178.73 223.602L171.074 215.012L136.684 230.374C135.24 228.681 133.797 226.988 132.353 225.358L166.242 209.682L134.738 174.442C137.248 173.439 139.759 172.436 142.332 171.433L162.414 193.755C171.576 188.488 195.424 174.944 195.424 174.944L181.805 156.258C184.567 155.255 186.952 154.377 188.771 153.75L194.482 161.714L206.845 156.635C208.791 158.328 210.736 160.021 212.682 161.714L198.687 167.608L205.716 177.39L194.733 184.036C200.444 189.303 215.129 197.517 236.968 182.657L242.303 187.297Z" fill="#FFFFFD"/>
<path d="M186.575 225.797C184.128 226.988 181.68 228.117 179.233 229.246L178.73 223.477L186.199 220.091L186.575 225.797Z" fill="#D9D9D7"/>
<path d="M178.73 223.477L178.605 223.665C163.983 230.437 152.247 235.767 149.486 236.896C148.043 237.523 146.097 238.4 143.963 239.278C141.579 236.269 139.131 233.321 136.621 230.374L171.011 215.012L178.73 223.477Z" fill="#8CB302"/>
<path d="M120.806 184.224L133.295 178.393L148.043 195.824L135.931 201.28L120.806 184.224Z" fill="#B99D88"/>
<path d="M140.073 208.24L146.097 216.391L158.335 209.933L152.436 203.474L140.073 208.24Z" fill="#B99D88"/>
<path d="M127.333 215.012L136.684 209.933L141.892 218.147L132.73 222.787L127.333 215.012Z" fill="#B99D88"/>
<path d="M173.145 201.28L179.233 197.831L182.621 203.474L177.162 206.61L173.145 201.28Z" fill="#B99D88"/>
<path d="M178.73 208.24L189.399 202.22L199.44 211.814L186.575 217.457L178.73 208.24Z" fill="#B99D88"/>
<path d="M204.147 169.301L211.991 165.538L215.443 171.182L206.971 175.007L204.147 169.301Z" fill="#B99D88"/>
<path d="M100.473 214.259C99.1553 212.943 97.7746 211.563 96.4567 210.246C95.5782 209.369 94.2603 210.748 95.1389 211.563C96.4567 212.88 97.8374 214.259 99.1553 215.576C100.034 216.391 101.352 215.075 100.473 214.259Z" fill="#362F34"/>
<path d="M101.917 216.015C100.724 216.015 100.724 217.896 101.917 217.896C103.172 217.896 103.172 216.015 101.917 216.015Z" fill="#362F34"/>
<path d="M121.246 235.516C120.995 236.77 120.681 238.714 120.304 240.721C123.944 244.044 127.898 247.054 131.977 249.687C132.416 247.931 132.667 245.925 132.604 244.044C128.588 241.536 124.76 238.651 121.246 235.516Z" fill="#61525E"/>
<path d="M137.186 249.624C137.06 247.681 136.809 245.674 136.684 243.73C135.993 244.044 134.926 244.107 134.173 243.981C134.236 245.862 134.299 247.743 134.362 249.624C134.989 249.938 136.495 249.75 137.186 249.624Z" fill="#61525E"/>
<path d="M245.943 183.723C245.88 183.723 245.817 183.723 245.817 183.723C245.315 183.66 244.876 184.224 244.876 184.663C244.876 185.227 245.315 185.541 245.817 185.604C245.88 185.604 245.943 185.604 245.943 185.604C246.445 185.666 246.884 185.102 246.884 184.663C246.884 184.099 246.445 183.785 245.943 183.723Z" fill="#BDCBD8"/>
<path d="M129.843 126.976C128.965 128.669 128.274 130.362 127.584 132.055C126.517 127.853 124.634 123.652 122.877 119.89C120.492 114.623 117.606 109.607 114.029 105.092C107.502 96.7522 98.967 90.1056 88.926 86.6569C87.4826 86.1552 86.855 88.4126 88.2984 88.9142C98.0884 92.3629 106.435 99.0723 112.648 107.412C115.723 111.55 118.296 116.002 120.43 120.705C122.563 125.345 123.756 130.424 125.701 135.127C123.317 134.186 120.932 133.183 118.484 132.744C117.606 132.556 116.978 133.748 117.857 134.312C120.618 135.942 123.881 136.82 126.831 137.886C127.396 138.074 128.023 137.635 128.149 137.134C129.027 133.998 130.157 131.051 131.663 128.167C132.416 126.85 130.471 125.721 129.843 126.976Z" fill="#71B4BD"/>
<path d="M54.1588 20.3161C54.096 20.128 53.845 20.0653 53.6567 20.1907C52.5271 21.5075 52.2761 23.514 51.8995 25.207C51.3975 27.1508 50.8327 29.1573 50.7072 31.1639C50.6444 31.7282 51.4602 31.7282 51.6485 31.2893C52.4016 29.3455 52.7781 27.1508 53.2802 25.1443C53.7195 23.5767 54.4726 21.9464 54.1588 20.3161Z" fill="#593D2D"/>
<path d="M74.1153 23.7648C71.7306 20.5042 67.1494 18.9993 62.8819 18.6858C57.2339 18.3095 54.2216 20.0026 53.594 20.6923C52.9037 19.689 47.5694 16.4284 43.4274 15.5506C39.8503 14.7981 35.3946 15.6133 33.0726 16.8047C33.0726 16.4911 33.1354 16.1776 33.1981 15.8014C34.3278 7.33636 43.2392 -1.06597 56.7946 -6.92325e-06C67.7142 0.877848 74.2409 11.0986 74.6174 19.5009C74.6802 20.8804 74.3664 22.5734 74.1153 23.7648Z" fill="#E2342B"/>
<path d="M74.1154 23.7648C71.7306 20.5042 67.1494 18.9993 62.882 18.6858C57.2339 18.3095 54.2216 20.0026 53.594 20.6923C52.9037 19.689 47.5694 16.4284 43.4274 15.5506C39.8503 14.7981 35.3946 15.6133 33.0726 16.8047C33.0726 16.8047 35.0181 11.851 39.16 11.1613C43.2392 10.4088 46.4398 12.1646 47.1301 13.9203C47.1301 13.9203 50.1424 11.224 54.4726 10.9105C58.8028 10.597 63.384 13.6695 63.6978 16.2403C63.6978 16.2403 67.2121 13.2932 70.0989 14.1711C72.9857 14.9862 74.3664 20.3161 74.1154 23.7648Z" fill="#851F1A"/>
<path d="M73.7388 23.7648C69.6597 24.7054 65.6432 25.834 61.6268 26.9627C58.6773 27.8406 55.4767 28.5303 52.5899 29.7217C57.0456 25.8967 60.8737 20.6296 64.1998 15.9268C64.5764 15.4252 63.7605 14.9862 63.384 15.4252C61.1875 18.3096 58.991 21.1312 56.6063 23.8275C54.9119 25.7713 53.0292 27.527 51.3975 29.5336C51.021 26.9627 50.4562 24.3918 49.8286 21.8837C49.1383 19.062 48.5107 15.9895 47.0673 13.4814C46.8791 13.1051 46.377 13.3559 46.4398 13.7322C46.8791 16.5538 48.0714 19.3755 48.8245 22.1345C49.5148 24.5172 50.0169 26.9627 50.5817 29.3455C48.7617 27.2762 46.5025 25.7086 44.2433 24.0783C40.6662 21.5075 37.2146 18.6231 33.3237 16.4911C32.9471 16.303 32.5706 16.742 32.8844 17.0555C38.0931 22.0091 44.7453 25.1443 49.7659 30.286C45.1846 32.6688 40.8544 35.7413 36.587 38.5002C32.3823 41.1965 28.3031 44.0182 24.977 47.8431C24.2867 48.6583 25.6046 49.6615 26.3577 48.8464C33.0099 41.1965 42.7999 37.3716 50.77 31.2893C50.8955 31.4147 51.021 31.4147 51.2092 31.4147C56.7946 38.0613 61.2503 45.2723 65.2039 53.0475C65.5805 53.8 66.7729 53.2984 66.3963 52.4832C63.0702 44.7079 58.238 37.4343 52.7154 30.913C56.0415 30.1606 59.3048 28.9065 62.5682 27.966C66.3963 26.9 70.2245 25.8967 74.0526 24.8935C74.8057 24.7054 74.4919 23.5767 73.7388 23.7648Z" fill="#75513B"/>
<path d="M7.53076 87.1585C18.3876 92.1121 35.3319 99.3858 46.8163 104.59C50.5817 104.089 54.1588 103.399 57.6104 102.709C60.9365 102.019 64.1371 101.267 67.2121 100.452C72.2327 99.1977 77.0022 97.8809 81.4579 96.6895C69.3459 91.7359 51.8996 85.4028 38.909 80.7C29.621 81.0135 15.5636 84.2741 7.53076 87.1585Z" fill="#AA7445"/>
<path d="M16.6305 84.8385C19.2663 85.9671 21.7138 87.0331 24.224 88.3499C26.546 87.7228 28.868 86.5315 31.19 85.9044C29.4956 84.9639 27.4874 83.7725 25.7302 82.8319C22.5296 83.0828 19.7056 83.9606 16.6305 84.8385Z" fill="#875B37"/>
<path d="M7.53076 87.1585C10.4803 86.406 13.5554 85.5909 16.6304 84.8385C19.6428 84.086 22.7178 83.3963 25.7929 82.7692C30.1858 81.8914 34.6416 81.1389 38.9717 80.7627C40.7917 68.5981 42.7371 56.8725 42.9254 43.5165C38.8462 44.3944 34.6416 45.3977 30.3741 46.4009C27.2363 47.1534 24.0357 47.9058 20.8979 48.6583C17.9483 49.348 14.9988 50.0377 12.1747 50.6021C10.9824 62.7039 8.66038 75.1193 7.53076 87.1585Z" fill="#CC955D"/>
<path d="M38.9089 80.7627C40.4151 67.8457 41.5447 56.9979 42.8626 43.5165C57.1083 48.9091 71.0402 54.8033 85.2232 60.1958C85.4115 72.1095 82.7757 86.6569 81.4578 96.7522C65.5177 91.6732 54.2843 86.5315 38.9089 80.7627Z" fill="#FECB94"/>
<path d="M20.2703 54.0508C21.3371 53.8 26.7342 53.1103 29.621 52.1697C29.872 50.2259 30.123 48.3448 30.3741 46.4009C27.2362 47.1534 24.0357 47.9058 20.8978 48.6583C20.7096 50.3513 20.5213 51.8562 20.2703 54.0508Z" fill="#B3804F"/>
<path d="M16.6305 84.8385C19.6428 84.086 22.7179 83.3963 25.7929 82.7692C26.044 81.0135 26.3577 79.3205 26.6088 77.5648C23.4709 77.8156 20.4586 78.1918 17.3836 78.5053C17.0698 80.5119 16.756 82.7065 16.6305 84.8385Z" fill="#B3804F"/>
<path d="M52.4644 100.138C53.7195 100.891 56.2297 101.894 57.6104 102.709C60.9365 102.019 64.1371 101.267 67.2121 100.452C65.0784 99.5112 61.8151 98.4452 59.6186 97.5674C56.5435 98.3198 54.7863 99.5112 52.4644 100.138Z" fill="#875B37"/>
<path d="M75.8098 89.7921C76.4374 88.9142 77.5042 87.9109 78.5083 87.0958C79.0104 88.3499 79.3242 89.5413 79.3869 90.7953C79.0731 90.7326 78.7594 90.7326 78.4456 90.6699C78.3201 91.3597 78.1318 92.0494 78.0063 92.7392C77.3787 92.551 76.7512 92.3629 76.1236 92.1121C76.3119 91.4851 76.5629 90.858 76.8139 90.231C76.4374 90.0429 76.1236 89.9175 75.8098 89.7921Z" fill="#875B37"/>
<path d="M72.2327 85.0893C71.9816 85.6536 71.6679 86.406 71.6051 87.0958C71.6051 87.7228 71.9189 88.4753 72.5464 88.6634C73.2368 88.9142 73.9898 88.4753 74.3664 87.9109C74.7429 87.3466 74.8684 86.5942 74.9312 85.9044C74.1154 85.6536 73.0485 85.3401 72.2327 85.0893Z" fill="#875B37"/>
<path d="M71.2286 90.1056C71.4796 90.1683 71.6679 90.231 71.9189 90.2937C72.0444 89.6666 72.2327 89.1023 72.3582 88.4753C72.4209 88.1618 72.923 88.3499 72.7975 88.6634C72.672 89.2277 72.4837 89.8548 72.3582 90.4191C72.5464 90.4818 72.7347 90.5445 72.923 90.6072C73.2368 90.6699 73.0485 91.1715 72.7347 91.0461C72.1699 90.858 71.5423 90.6699 70.9775 90.5445C70.7265 90.4818 70.9148 89.9802 71.2286 90.1056Z" fill="#875B37"/>
<path d="M23.6591 82.3303C30.0603 86.2807 36.6497 89.604 43.4902 92.6765C43.4902 92.6765 43.4902 92.6765 43.5529 92.6765C43.9922 92.551 44.4315 92.3629 44.8708 92.2375C49.2638 90.6072 54.1588 88.6007 58.8655 88.2245C59.3048 88.1618 59.5558 88.8515 59.1165 89.0396C54.7863 90.9207 49.8913 91.8613 45.4356 93.4916C45.4356 93.4916 45.3729 93.4916 45.3729 93.5543C51.1465 96.1252 56.9828 98.6333 62.4426 101.894C62.8819 102.145 62.4426 102.96 62.0033 102.709C56.0415 99.6993 49.9541 96.9403 43.8667 94.1813C39.9758 95.7489 36.1477 97.8809 32.194 99.0723C31.692 99.1977 31.1271 98.5706 31.6292 98.1944C34.6415 96.0625 38.4069 94.6203 42.0468 93.3662C41.984 93.3662 41.984 93.3035 41.9213 93.3035C35.4573 90.4191 28.8679 87.4093 23.0316 83.3963C22.3412 82.8319 23.0316 81.9541 23.6591 82.3303Z" fill="#593D2D"/>
<path d="M59.9952 79.3832C60.6855 76.3107 61.313 73.1755 61.9406 70.103C62.5682 67.0305 63.133 63.8953 63.635 60.7601C64.1371 57.813 64.3881 54.6778 65.2667 51.7935C65.3922 51.2918 66.0825 51.5426 66.0825 51.9816C66.1453 55.2422 65.3295 58.6282 64.8274 61.8888C64.3254 65.024 63.7605 68.0965 63.133 71.2317C62.5054 74.3042 61.8778 77.4394 61.1875 80.5119C60.56 83.3336 60.1834 86.7196 58.8655 89.3531C58.6145 89.8548 57.9242 89.6667 57.9242 89.1023C57.987 85.9044 59.3048 82.5184 59.9952 79.3832Z" fill="#6B4A36"/>
<path d="M25.9812 47.5296C26.044 47.2788 26.4833 47.3415 26.4833 47.5923C26.7343 53.2984 25.6047 59.1925 25.1654 64.8986C24.9143 67.8457 24.7261 70.7928 24.6006 73.7399C24.4123 76.8123 24.5378 80.073 24.0358 83.0827C23.973 83.5844 23.0944 83.7098 23.0944 83.0827C22.5296 77.2513 23.4709 71.0436 23.9102 65.2121C24.4123 59.4434 24.4123 53.173 25.9812 47.5296Z" fill="#614331"/>
<path d="M33.1353 76.1226C33.7629 75.8091 34.5787 75.8718 35.2691 75.8718C36.0849 75.8091 36.9635 75.6837 37.7793 75.8091C37.9676 75.8718 37.9676 76.1853 37.7793 76.1853C36.9635 76.4361 36.1476 76.3734 35.3318 76.4361C34.6415 76.4988 33.8257 76.6243 33.1981 76.3734C33.0726 76.3734 33.0726 76.1853 33.1353 76.1226Z" fill="#8C663F"/>
<path d="M29.4328 76.3734C29.8721 76.248 30.3741 76.1853 30.8762 76.1853C31.3154 76.1853 31.7547 76.0599 32.1313 76.248C32.194 76.3107 32.194 76.3734 32.1313 76.4361C31.7547 76.6869 31.3154 76.6242 30.8762 76.6242C30.3741 76.6242 29.9348 76.6869 29.4328 76.5615C29.3072 76.5615 29.3072 76.4361 29.4328 76.3734Z" fill="#8C663F"/>
<path d="M36.587 77.3767C36.8381 77.3767 37.0891 77.3767 37.3401 77.314C37.5284 77.314 37.6539 77.314 37.7794 77.3767C37.7794 77.3767 37.7794 77.3767 37.8422 77.3767C38.0304 77.3767 38.0304 77.6902 37.8422 77.6902C37.8422 77.6902 37.8422 77.6902 37.7794 77.6902C37.6539 77.8156 37.5284 77.8156 37.3401 77.8156C37.0891 77.8156 36.8381 77.8783 36.587 77.8783C36.2105 78.0037 36.1477 77.4394 36.587 77.3767Z" fill="#8C663F"/>
<path d="M29.7465 77.941C30.6879 77.7529 31.692 77.6275 32.6961 77.5648C33.6374 77.5021 34.7043 77.314 35.6456 77.5648C35.8339 77.6275 35.8339 77.8783 35.6456 77.8783C34.7043 78.1919 33.7002 78.1291 32.6961 78.1919C31.692 78.2546 30.7506 78.2546 29.7465 78.1291C29.6838 78.1291 29.6838 77.941 29.7465 77.941Z" fill="#8C663F"/>
<path d="M34.265 79.0697C35.3946 79.0697 36.5242 78.8816 37.6538 79.007C37.8421 79.007 37.8421 79.3832 37.6538 79.4459C36.587 79.7594 35.3319 79.634 34.265 79.634C33.9512 79.5713 33.9512 79.0697 34.265 79.0697Z" fill="#8C663F"/>
<path d="M32.4451 79.0697C32.5706 79.0697 32.6961 79.0697 32.8844 79.0697C32.9472 79.0697 33.0099 79.0697 33.0727 79.0697C33.1354 79.0697 33.1982 79.1324 33.261 79.1324C33.4492 79.1324 33.4492 79.4459 33.261 79.5086C33.1982 79.5086 33.1354 79.5713 33.0727 79.5713C33.0099 79.5713 32.9472 79.6341 32.8844 79.6341C32.7589 79.6341 32.6334 79.6341 32.4451 79.6341C32.0686 79.6968 32.0686 79.0697 32.4451 79.0697Z" fill="#8C663F"/>
<path d="M63.6351 16.2403C65.455 10.8478 63.7606 0.313508 56.3553 0.0626922C49.0128 -0.188124 47.1301 13.9203 47.1301 13.9203C47.1301 13.9203 50.1424 11.224 54.4726 10.9105C58.7401 10.597 63.3213 13.6695 63.6351 16.2403Z" fill="#E2C4C2"/>
<path d="M145.218 176.198C143.336 179.898 139.633 186.983 134.675 186.419C132.04 186.105 129.906 184.036 128.149 181.591C126.517 179.396 125.262 176.951 124.132 175.195C120.492 169.426 118.421 160.334 121.245 153.876C122.877 150.176 125.764 147.48 129.09 145.975C133.044 144.219 137.688 144.219 141.767 146.414C142.645 146.853 143.461 147.48 144.277 148.107C152.247 154.879 149.298 168.235 145.218 176.198Z" fill="#E2342B"/>
<path d="M144.277 148.169C143.461 147.48 142.645 146.915 141.767 146.476C139.445 145.222 136.872 144.658 134.424 144.783C136.495 144.846 138.566 145.41 140.512 146.476C141.39 146.915 142.206 147.542 143.022 148.169C150.992 154.816 148.105 168.235 144.026 176.198C142.269 179.584 139.006 185.855 134.675 186.419H134.738C139.696 186.983 143.398 179.898 145.281 176.198C149.298 168.235 152.247 154.879 144.277 148.169Z" fill="#E27971"/>
<path d="M143.273 167.169C142.143 168.611 140.574 169.74 138.88 170.429C138.19 170.743 137.437 170.931 136.684 171.056C134.738 171.433 132.604 171.307 130.722 170.617C126.392 168.987 123.442 164.347 123.693 159.707C124.132 152.433 131.098 148.608 137.186 149.988C137.939 150.176 138.629 150.427 139.319 150.74C140.01 151.054 140.637 151.43 141.265 151.932C142.081 152.559 142.834 153.311 143.524 154.252C146.285 158.014 146.16 163.532 143.273 167.169Z" fill="#FED772"/>
<path d="M130.784 170.68C126.454 169.05 123.505 164.41 123.756 159.77C124.195 152.496 131.161 148.671 137.248 150.051C138.755 156.133 134.299 164.974 130.784 170.68Z" fill="#F3C452"/>
<path d="M138.88 170.429C138.19 170.743 137.437 170.931 136.684 171.056C138.943 164.472 139.821 157.638 139.382 150.678C140.072 150.991 140.7 151.367 141.328 151.869C141.641 158.202 140.826 164.472 138.88 170.429Z" fill="#F3C452"/>
</g>
<defs>
<clipPath id="clip0_78_1838">
<rect width="260" height="269" fill="white"/>
</clipPath>
</defs>
</svg>
