<svg width="18" height="18" viewBox="0 0 18 18" fill="none" xmlns="http://www.w3.org/2000/svg">
<path d="M16.1594 5.95463C15.9484 5.74372 15.6623 5.62524 15.364 5.62524C15.0657 5.62524 14.7796 5.74372 14.5686 5.95463L8.9999 11.5234L3.43115 5.95463C3.21898 5.7497 2.9348 5.63631 2.63983 5.63887C2.34486 5.64143 2.06269 5.75975 1.85411 5.96833C1.64552 6.17692 1.52721 6.45908 1.52465 6.75405C1.52208 7.04902 1.63548 7.3332 1.84041 7.54538L8.20452 13.9095C8.41549 14.1204 8.70159 14.2389 8.9999 14.2389C9.29821 14.2389 9.5843 14.1204 9.79527 13.9095L16.1594 7.54538C16.3703 7.33441 16.4888 7.04831 16.4888 6.75C16.4888 6.45169 16.3703 6.1656 16.1594 5.95463V5.95463Z" fill="black" fill-opacity="0.6"/>
</svg>
