<svg width="16" height="16" viewBox="0 0 16 16" fill="none" xmlns="http://www.w3.org/2000/svg">
<path d="M1.63605 5.293C1.82358 5.10553 2.07788 5.00021 2.34305 5.00021C2.60821 5.00021 2.86252 5.10553 3.05005 5.293L8.00004 10.243L12.95 5.293C13.1386 5.11084 13.3912 5.01005 13.6534 5.01233C13.9156 5.0146 14.1664 5.11977 14.3519 5.30518C14.5373 5.49059 14.6424 5.7414 14.6447 6.0036C14.647 6.2658 14.5462 6.5184 14.364 6.707L8.70704 12.364C8.51951 12.5515 8.2652 12.6568 8.00004 12.6568C7.73488 12.6568 7.48057 12.5515 7.29304 12.364L1.63605 6.707C1.44858 6.51947 1.34326 6.26516 1.34326 6C1.34326 5.73484 1.44858 5.48053 1.63605 5.293V5.293Z" fill="black" fill-opacity="0.6"/>
</svg>
