<svg width="35" height="35" viewBox="0 0 35 35" fill="none" xmlns="http://www.w3.org/2000/svg">
    <defs>
        <linearGradient id="paint0_linear_78_2309" x1="-1.13636" y1="-1.13636" x2="35" y2="35" gradientUnits="userSpaceOnUse">
            <stop stop-color="#5961C3"/>
            <stop offset="1" stop-color="#3B42AD"/>
        </linearGradient>
    </defs>
<circle cx="17.5" cy="17.5" r="17.5" fill="url(#paint0_linear_78_2309)"/>
<path fill-rule="evenodd" clip-rule="evenodd" d="M9.75 16.3958C9.75 12.7255 12.7255 9.75 16.3958 9.75H19.6042C23.2745 9.75 26.25 12.7255 26.25 16.3958C26.25 20.0662 23.2745 23.0417 19.6042 23.0417H19.2833V26.25C19.2833 26.25 9.75 24.6458 9.75 16.3958ZM19.6917 12.7209C20.1638 13.0344 20.5199 13.5427 20.5199 14.2243C20.5199 14.9475 20.228 15.4792 19.7554 15.8046C19.5689 15.9309 19.363 16.0259 19.1458 16.086V16.7882C19.1458 16.8785 19.1281 16.9679 19.0935 17.0513C19.059 17.1347 19.0083 17.2105 18.9445 17.2743C18.8806 17.3381 18.8048 17.3888 18.7214 17.4233C18.638 17.4579 18.5486 17.4757 18.4583 17.4757C18.368 17.4757 18.2786 17.4579 18.1952 17.4233C18.1118 17.3888 18.036 17.3381 17.9722 17.2743C17.9084 17.2105 17.8577 17.1347 17.8232 17.0513C17.7886 16.9679 17.7708 16.8785 17.7708 16.7882V15.5062C17.7708 15.3318 17.8371 15.1639 17.9562 15.0365C18.0753 14.9091 18.2385 14.8317 18.4125 14.8201C18.6664 14.8031 18.8589 14.7527 18.9753 14.6725C19.0223 14.6413 19.0603 14.5983 19.0853 14.5478C19.1128 14.4928 19.1449 14.3947 19.1449 14.2238C19.1449 14.0803 19.0885 13.9708 18.9304 13.8654C18.7508 13.7462 18.462 13.6582 18.115 13.6472C17.7722 13.6362 17.439 13.7031 17.1938 13.8218C16.9481 13.941 16.8583 14.0748 16.8326 14.1734C16.8118 14.2626 16.7734 14.3467 16.7197 14.4208C16.6659 14.4949 16.5979 14.5576 16.5196 14.6051C16.4413 14.6526 16.3543 14.6839 16.2637 14.6973C16.1731 14.7107 16.0808 14.7059 15.9921 14.6831C15.9034 14.6604 15.8201 14.6201 15.7472 14.5647C15.6743 14.5093 15.6132 14.4399 15.5675 14.3606C15.5217 14.2812 15.4923 14.1936 15.4809 14.1027C15.4695 14.0118 15.4764 13.9196 15.5012 13.8315C15.6588 13.2168 16.119 12.8153 16.5943 12.5848C17.071 12.3533 17.6315 12.2557 18.159 12.2727C18.6825 12.2892 19.2416 12.4212 19.6917 12.7209V12.7209ZM18.4583 20.2917C18.7014 20.2917 18.9346 20.1951 19.1065 20.0232C19.2784 19.8513 19.375 19.6181 19.375 19.375C19.375 19.1319 19.2784 18.8987 19.1065 18.7268C18.9346 18.5549 18.7014 18.4583 18.4583 18.4583C18.2152 18.4583 17.9821 18.5549 17.8102 18.7268C17.6382 18.8987 17.5417 19.1319 17.5417 19.375C17.5417 19.6181 17.6382 19.8513 17.8102 20.0232C17.9821 20.1951 18.2152 20.2917 18.4583 20.2917V20.2917Z" fill="white"/>

</svg>
