<svg width="375" height="241" viewBox="0 0 375 241" fill="none" xmlns="http://www.w3.org/2000/svg">
    <defs>
        <linearGradient id="paint0_linear_78_1813" x1="-12.1753" y1="-7.82468" x2="214.164" y2="344.364" gradientUnits="userSpaceOnUse">
            <stop stop-color="#5961C3"/>
            <stop offset="1" stop-color="#3B42AD"/>
        </linearGradient>
        <clipPath id="clip0_78_1813">
            <rect width="54" height="62" fill="white" transform="translate(160 104)"/>
        </clipPath>
    </defs>
    <path d="M0 167.105V0H375V167.105L187 241L0 167.105Z" fill="url(#paint0_linear_78_1813)"/>
<g clip-path="url(#clip0_78_1813)">
<path d="M160 133.397V150.928L160.993 149.912V132.274L160 133.397Z" fill="white"/>
<path d="M160.993 132.274V149.912L162.039 148.897V131.098L160.993 132.274Z" fill="white"/>
<path d="M162.039 131.098V148.897L163.032 147.828V129.976L162.039 131.098Z" fill="white"/>
<path d="M163.502 134.786V129.495L163.032 129.976V147.828L163.502 147.347V142.269V134.786Z" fill="white"/>
<path d="M164.077 134.198V128.853L163.502 129.495V134.786L164.077 134.198Z" fill="white"/>
<path d="M163.502 142.269V147.347L164.077 146.812V141.681L163.502 142.269Z" fill="white"/>
<path d="M164.077 141.681V146.812L165.071 145.743V140.666L164.077 141.681Z" fill="white"/>
<path d="M165.071 133.022V127.731L164.077 128.853V134.198L165.071 133.022Z" fill="white"/>
<path d="M166.116 131.9V126.609L165.071 127.731V133.022L166.116 131.9Z" fill="white"/>
<path d="M165.071 140.666V145.743L166.116 144.728V139.597L165.071 140.666Z" fill="white"/>
<path d="M167.109 130.778V125.486L166.116 126.609V131.9L167.109 130.778Z" fill="white"/>
<path d="M166.116 139.597V144.728L167.109 143.659V138.581L166.116 139.597Z" fill="white"/>
<path d="M167.109 138.581V143.659L168.155 142.643V137.512L167.109 138.581Z" fill="white"/>
<path d="M168.155 129.655V124.364L167.109 125.486V130.778L168.155 129.655Z" fill="white"/>
<path d="M169.148 128.533V123.188L168.155 124.364V129.655L169.148 128.533Z" fill="white"/>
<path d="M168.155 137.512V142.643L169.148 141.574V136.497L168.155 137.512Z" fill="white"/>
<path d="M170.194 127.41V122.066L169.148 123.188V128.533L170.194 127.41Z" fill="white"/>
<path d="M169.148 136.497V141.574L170.194 140.559V135.481L169.148 136.497Z" fill="white"/>
<path d="M171.187 126.288V120.943L170.194 122.066V127.41L171.187 126.288Z" fill="white"/>
<path d="M170.194 135.481V140.559L171.187 139.49V134.412L170.194 135.481Z" fill="white"/>
<path d="M172.232 125.112V119.821L171.187 120.943V126.288L172.232 125.112Z" fill="white"/>
<path d="M171.187 134.412V139.49L172.232 138.474V133.397L171.187 134.412Z" fill="white"/>
<path d="M172.232 133.397V138.474L173.226 137.405V132.328L172.232 133.397Z" fill="white"/>
<path d="M173.226 123.99V118.698L172.232 119.821V125.112L173.226 123.99Z" fill="white"/>
<path d="M173.226 132.328V137.405L173.853 136.764V131.686L173.226 132.328Z" fill="white"/>
<path d="M173.853 123.295V118.003L173.226 118.698V123.99L173.853 123.295Z" fill="white"/>
<path d="M173.853 131.686V136.764L174.48 136.122V131.045L173.853 131.686Z" fill="white"/>
<path d="M174.48 122.6V117.309L173.853 118.003V123.295L174.48 122.6Z" fill="white"/>
<path d="M174.48 131.045V136.122L175.107 135.481V130.403L174.48 131.045Z" fill="white"/>
<path d="M175.107 121.905V116.614L174.48 117.309V122.6L175.107 121.905Z" fill="white"/>
<path d="M175.735 121.21V115.919L175.107 116.614V121.905L175.735 121.21Z" fill="white"/>
<path d="M175.107 130.403V135.481L175.735 134.84V129.762L175.107 130.403Z" fill="white"/>
<path d="M176.414 162.366H176.205V165.947H176.414V162.366Z" fill="white"/>
<path d="M176.362 129.121L175.735 129.762V134.84L176.205 134.412V162.366H176.362V129.121Z" fill="white"/>
<path d="M176.362 120.516V115.171L175.735 115.919V121.21L176.362 120.516Z" fill="white"/>
<path d="M176.989 162.366H176.362V165.947H176.989V162.366Z" fill="white"/>
<path d="M176.989 119.821V114.476L176.362 115.171V120.516L176.989 119.821Z" fill="white"/>
<path d="M176.362 129.121V162.366H176.989V128.479L176.362 129.121Z" fill="white"/>
<path d="M177.617 162.366H176.989V165.947H177.617V162.366Z" fill="white"/>
<path d="M177.669 119.126V113.781L176.989 114.476V119.821L177.669 119.126Z" fill="white"/>
<path d="M176.989 128.479V162.366H177.669V127.838L176.989 128.479Z" fill="white"/>
<path d="M178.296 113.086L178.139 113.247H178.296V113.086Z" fill="white"/>
<path d="M178.296 162.366H177.669V165.947H178.296V162.366Z" fill="white"/>
<path d="M177.669 127.838V162.366H178.296V127.197L177.669 127.838Z" fill="white"/>
<path d="M178.296 118.431V113.247H178.139L177.669 113.781V119.126L178.296 118.431Z" fill="white"/>
<path d="M178.924 162.366H178.296V165.947H178.924V162.366Z" fill="white"/>
<path d="M178.924 113.247V112.391L178.296 113.086V113.247H178.924Z" fill="white"/>
<path d="M178.296 127.197V162.366H178.924V126.555L178.296 127.197Z" fill="white"/>
<path d="M178.924 113.247H178.296V118.431L178.924 117.736V113.247Z" fill="white"/>
<path d="M179.551 162.366H178.924V165.947H179.551V162.366Z" fill="white"/>
<path d="M179.551 113.247V111.697L178.924 112.391V113.247H179.551Z" fill="white"/>
<path d="M179.551 116.988V113.247H178.924V117.736L179.551 116.988Z" fill="white"/>
<path d="M178.924 126.555V162.366H179.551V125.914L178.924 126.555Z" fill="white"/>
<path d="M179.708 162.366H179.551V166H180.178V162.366H179.708Z" fill="white"/>
<path d="M180.178 113.247V111.002L179.551 111.697V113.247H180.178Z" fill="white"/>
<path d="M180.178 116.293V113.247H179.551V116.988L180.178 116.293Z" fill="white"/>
<path d="M179.551 125.914V162.366H179.708V125.7L179.551 125.914Z" fill="white"/>
<path d="M180.805 113.247V110.307L180.178 111.002V113.247H180.805Z" fill="white"/>
<path d="M180.805 162.366H180.178V165.947H180.805V162.366Z" fill="white"/>
<path d="M180.805 115.598V113.247H180.178V116.293L180.805 115.598Z" fill="white"/>
<path d="M181.433 113.247V109.612L180.805 110.307V113.247H181.433Z" fill="white"/>
<path d="M181.433 162.366H180.805V165.947H181.433V162.366Z" fill="white"/>
<path d="M181.433 114.903V113.247H180.805V115.598L181.433 114.903Z" fill="white"/>
<path d="M182.06 162.366H181.433V165.947H182.06V162.366Z" fill="white"/>
<path d="M182.06 113.247V108.917L181.433 109.612V113.247H182.06Z" fill="white"/>
<path d="M182.06 114.209V113.247H181.433V114.903L182.06 114.209Z" fill="white"/>
<path d="M182.687 162.366H182.06V165.947H182.687V162.366Z" fill="white"/>
<path d="M182.687 113.247V108.222L182.06 108.917V113.247H182.687Z" fill="white"/>
<path d="M182.06 114.209L182.687 113.514V113.247H182.06V114.209Z" fill="white"/>
<path d="M182.687 108.222V113.247H182.949V162.366H182.687V166H183.315V107.474L182.687 108.222Z" fill="white"/>
<path d="M182.949 113.247H182.687V113.514L182.949 113.247Z" fill="white"/>
<path d="M183.315 107.474V166H183.942V106.779L183.315 107.474Z" fill="white"/>
<path d="M183.942 106.779V166H184.569V106.084L183.942 106.779Z" fill="white"/>
<path d="M184.569 106.084V166H185.197V105.39L184.569 106.084Z" fill="white"/>
<path d="M185.197 105.39V166H185.824V104.695L185.197 105.39Z" fill="white"/>
<path d="M185.824 166H186.451V104L185.824 104.695V166Z" fill="white"/>
<path d="M213.007 149.912L214 150.928V133.397L213.007 132.274V149.912Z" fill="white"/>
<path d="M211.961 131.098V148.897L213.007 149.912V132.274L211.961 131.098Z" fill="white"/>
<path d="M210.968 129.976V147.828L211.961 148.897V131.098L210.968 129.976Z" fill="white"/>
<path d="M210.498 129.495V134.786V142.269V147.347L210.968 147.828V129.976L210.498 129.495Z" fill="white"/>
<path d="M209.923 141.681V146.812L210.498 147.347V142.269L209.923 141.681Z" fill="white"/>
<path d="M210.498 134.786V129.495L209.923 128.853V134.198L210.498 134.786Z" fill="white"/>
<path d="M209.923 134.198V128.853L208.929 127.731V133.022L209.923 134.198Z" fill="white"/>
<path d="M208.929 140.666V145.743L209.923 146.812V141.681L208.929 140.666Z" fill="white"/>
<path d="M207.936 139.597V144.728L208.929 145.743V140.666L207.936 139.597Z" fill="white"/>
<path d="M208.929 133.022V127.731L207.936 126.609V131.9L208.929 133.022Z" fill="white"/>
<path d="M207.936 131.9V126.609L206.891 125.486V130.778L207.936 131.9Z" fill="white"/>
<path d="M206.891 138.581V143.659L207.936 144.728V139.597L206.891 138.581Z" fill="white"/>
<path d="M206.891 130.778V125.486L205.897 124.364V129.655L206.891 130.778Z" fill="white"/>
<path d="M205.897 137.512V142.643L206.891 143.659V138.581L205.897 137.512Z" fill="white"/>
<path d="M204.852 136.497V141.574L205.897 142.643V137.512L204.852 136.497Z" fill="white"/>
<path d="M205.897 129.655V124.364L204.852 123.188V128.533L205.897 129.655Z" fill="white"/>
<path d="M203.859 135.428V140.559L204.852 141.574V136.497L203.859 135.428Z" fill="white"/>
<path d="M204.852 128.533V123.188L203.859 122.066V127.41L204.852 128.533Z" fill="white"/>
<path d="M203.859 127.41V122.066L202.813 120.943V126.288L203.859 127.41Z" fill="white"/>
<path d="M202.813 134.412V139.49L203.859 140.559V135.428L202.813 134.412Z" fill="white"/>
<path d="M201.82 133.397V138.474L202.813 139.49V134.412L201.82 133.397Z" fill="white"/>
<path d="M202.813 126.288V120.943L201.82 119.821V125.112L202.813 126.288Z" fill="white"/>
<path d="M200.774 132.328V137.405L201.82 138.474V133.397L200.774 132.328Z" fill="white"/>
<path d="M201.82 125.112V119.821L200.774 118.698V123.99L201.82 125.112Z" fill="white"/>
<path d="M200.774 123.99V118.698L200.147 118.003V123.295L200.774 123.99Z" fill="white"/>
<path d="M200.147 131.686V136.764L200.774 137.405V132.328L200.147 131.686Z" fill="white"/>
<path d="M199.52 131.045V136.122L200.147 136.764V131.686L199.52 131.045Z" fill="white"/>
<path d="M200.147 123.295V118.003L199.52 117.309V122.6L200.147 123.295Z" fill="white"/>
<path d="M199.52 122.6V117.309L198.893 116.614V121.905L199.52 122.6Z" fill="white"/>
<path d="M198.893 130.403V135.481L199.52 136.122V131.045L198.893 130.403Z" fill="white"/>
<path d="M198.265 129.762V134.84L198.893 135.481V130.403L198.265 129.762Z" fill="white"/>
<path d="M198.893 121.905V116.614L198.265 115.919V121.21L198.893 121.905Z" fill="white"/>
<path d="M197.847 162.366H197.638V165.947H197.847V162.366Z" fill="white"/>
<path d="M198.265 121.21V115.919L197.638 115.171V120.516L198.265 121.21Z" fill="white"/>
<path d="M197.638 129.121V162.366H197.847V134.412L198.265 134.84V129.762L197.638 129.121Z" fill="white"/>
<path d="M197.638 162.366H197.011V165.947H197.638V162.366Z" fill="white"/>
<path d="M197.011 162.366H197.638V129.121L197.011 128.479V162.366Z" fill="white"/>
<path d="M197.638 120.516V115.171L197.011 114.476V119.821L197.638 120.516Z" fill="white"/>
<path d="M197.011 162.366H196.383V165.947H197.011V162.366Z" fill="white"/>
<path d="M197.011 119.821V114.476L196.383 113.781V119.126L197.011 119.821Z" fill="white"/>
<path d="M196.383 127.838V162.366H197.011V128.479L196.383 127.838Z" fill="white"/>
<path d="M195.861 113.247L195.756 113.086V113.247H195.861Z" fill="white"/>
<path d="M196.383 162.366H195.756V165.947H196.383V162.366Z" fill="white"/>
<path d="M195.756 127.197V162.366H196.383V127.838L195.756 127.197Z" fill="white"/>
<path d="M195.756 118.431L196.383 119.126V113.781L195.861 113.247H195.756V118.431Z" fill="white"/>
<path d="M195.756 162.366H195.129V165.947H195.756V162.366Z" fill="white"/>
<path d="M195.756 113.247V113.086L195.129 112.391V113.247H195.756Z" fill="white"/>
<path d="M195.129 126.555V162.366H195.756V127.197L195.129 126.555Z" fill="white"/>
<path d="M195.756 118.431V113.247H195.129V117.736L195.756 118.431Z" fill="white"/>
<path d="M195.129 162.366H194.501V165.947H195.129V162.366Z" fill="white"/>
<path d="M195.129 113.247V112.391L194.501 111.697V113.247H195.129Z" fill="white"/>
<path d="M195.129 117.736V113.247H194.501V116.988L195.129 117.736Z" fill="white"/>
<path d="M194.501 125.914V162.366H195.129V126.555L194.501 125.914Z" fill="white"/>
<path d="M194.501 113.247V111.697L193.874 111.002V113.247H194.501Z" fill="white"/>
<path d="M194.292 162.366H193.874V166H194.501V162.366H194.292Z" fill="white"/>
<path d="M194.292 125.7V162.366H194.501V125.914L194.292 125.7Z" fill="white"/>
<path d="M194.501 116.988V113.247H193.874V116.293L194.501 116.988Z" fill="white"/>
<path d="M193.874 113.247V111.002L193.247 110.307V113.247H193.874Z" fill="white"/>
<path d="M193.874 162.366H193.247V165.947H193.874V162.366Z" fill="white"/>
<path d="M193.874 116.293V113.247H193.247V115.598L193.874 116.293Z" fill="white"/>
<path d="M193.195 162.366H192.567V165.947H193.195V162.366Z" fill="white"/>
<path d="M193.247 113.247V110.307L192.567 109.612V113.247H193.247Z" fill="white"/>
<path d="M193.247 115.598V113.247H192.567V114.903L193.247 115.598Z" fill="white"/>
<path d="M192.567 113.247V109.612L191.94 108.917V113.247H192.567Z" fill="white"/>
<path d="M192.567 162.366H191.94V165.947H192.567V162.366Z" fill="white"/>
<path d="M192.567 114.903V113.247H191.94V114.209L192.567 114.903Z" fill="white"/>
<path d="M191.94 162.366H191.313V165.947H191.94V162.366Z" fill="white"/>
<path d="M191.94 113.247V108.917L191.313 108.222V113.247H191.94Z" fill="white"/>
<path d="M191.94 114.209V113.247H191.313V113.514L191.94 114.209Z" fill="white"/>
<path d="M191.051 162.366V113.247H191.313V108.222L190.685 107.474V166H191.313V162.366H191.051Z" fill="white"/>
<path d="M191.313 113.247H191.051L191.313 113.514V113.247Z" fill="white"/>
<path d="M190.058 106.779V166H190.685V107.474L190.058 106.779Z" fill="white"/>
<path d="M189.431 106.084V166H190.058V106.779L189.431 106.084Z" fill="white"/>
<path d="M188.803 105.39V166H189.431V106.084L188.803 105.39Z" fill="white"/>
<path d="M188.176 104.695V166H188.803V105.39L188.176 104.695Z" fill="white"/>
<path d="M187.549 104V166H188.176V104.695L187.549 104Z" fill="white"/>
</g>
</svg>
