<svg width="43" height="43" viewBox="0 0 43 43" fill="none" xmlns="http://www.w3.org/2000/svg">
    <defs>
        <linearGradient id="paint0_linear_78_2118" x1="-1.3961" y1="-1.3961" x2="43" y2="43" gradientUnits="userSpaceOnUse">
            <stop stop-color="#5961C3"/>
            <stop offset="1" stop-color="#3B42AD"/>
        </linearGradient>
        <clipPath id="clip0_78_2118">
            <rect width="16" height="18" fill="white" transform="translate(14 12)"/>
        </clipPath>
    </defs>
<circle cx="21.5" cy="21.5" r="21.5" fill="url(#paint0_linear_78_2118)"/>
<g clip-path="url(#clip0_78_2118)">
<path d="M14 20.5345V25.6241L14.2943 25.3293V20.2086L14 20.5345Z" fill="white"/>
<path d="M14.2942 20.2086V25.3293L14.604 25.0345V19.8672L14.2942 20.2086Z" fill="white"/>
<path d="M14.604 19.8672V25.0345L14.8983 24.7241V19.5414L14.604 19.8672Z" fill="white"/>
<path d="M15.0378 20.9379V19.4017L14.8984 19.5414V24.7241L15.0378 24.5845V23.1103V20.9379Z" fill="white"/>
<path d="M15.2082 20.7672V19.2155L15.0378 19.4017V20.9379L15.2082 20.7672Z" fill="white"/>
<path d="M15.0378 23.1103V24.5845L15.2082 24.4293V22.9397L15.0378 23.1103Z" fill="white"/>
<path d="M15.2083 22.9397V24.4293L15.5025 24.119V22.6448L15.2083 22.9397Z" fill="white"/>
<path d="M15.5025 20.4259V18.8897L15.2083 19.2155V20.7672L15.5025 20.4259Z" fill="white"/>
<path d="M15.8122 20.1V18.5638L15.5024 18.8897V20.4259L15.8122 20.1Z" fill="white"/>
<path d="M15.5024 22.6448V24.119L15.8122 23.8241V22.3345L15.5024 22.6448Z" fill="white"/>
<path d="M16.1065 19.7741V18.2379L15.8123 18.5638V20.1L16.1065 19.7741Z" fill="white"/>
<path d="M15.8123 22.3345V23.8241L16.1065 23.5138V22.0397L15.8123 22.3345Z" fill="white"/>
<path d="M16.1064 22.0397V23.5138L16.4162 23.219V21.7293L16.1064 22.0397Z" fill="white"/>
<path d="M16.4162 19.4483V17.9121L16.1064 18.2379V19.7741L16.4162 19.4483Z" fill="white"/>
<path d="M16.7105 19.1224V17.5707L16.4163 17.9121V19.4483L16.7105 19.1224Z" fill="white"/>
<path d="M16.4163 21.7293V23.219L16.7105 22.9086V21.4345L16.4163 21.7293Z" fill="white"/>
<path d="M17.0202 18.7966V17.2448L16.7104 17.5707V19.1224L17.0202 18.7966Z" fill="white"/>
<path d="M16.7104 21.4345V22.9086L17.0202 22.6138V21.1397L16.7104 21.4345Z" fill="white"/>
<path d="M17.3146 18.4707V16.919L17.0203 17.2448V18.7966L17.3146 18.4707Z" fill="white"/>
<path d="M17.0203 21.1397V22.6138L17.3146 22.3034V20.8293L17.0203 21.1397Z" fill="white"/>
<path d="M17.6245 18.1293V16.5931L17.3147 16.919V18.4707L17.6245 18.1293Z" fill="white"/>
<path d="M17.3147 20.8293V22.3034L17.6245 22.0086V20.5345L17.3147 20.8293Z" fill="white"/>
<path d="M17.6245 20.5345V22.0086L17.9188 21.6983V20.2241L17.6245 20.5345Z" fill="white"/>
<path d="M17.9188 17.8034V16.2672L17.6245 16.5931V18.1293L17.9188 17.8034Z" fill="white"/>
<path d="M17.9187 20.2241V21.6983L18.1046 21.5121V20.0379L17.9187 20.2241Z" fill="white"/>
<path d="M18.1046 17.6017V16.0655L17.9187 16.2672V17.8034L18.1046 17.6017Z" fill="white"/>
<path d="M18.1045 20.0379V21.5121L18.2904 21.3259V19.8517L18.1045 20.0379Z" fill="white"/>
<path d="M18.2904 17.4V15.8638L18.1045 16.0655V17.6017L18.2904 17.4Z" fill="white"/>
<path d="M18.2905 19.8517V21.3259L18.4764 21.1397V19.6655L18.2905 19.8517Z" fill="white"/>
<path d="M18.4764 17.1983V15.6621L18.2905 15.8638V17.4L18.4764 17.1983Z" fill="white"/>
<path d="M18.6622 16.9966V15.4603L18.4763 15.6621V17.1983L18.6622 16.9966Z" fill="white"/>
<path d="M18.4763 19.6655V21.1397L18.6622 20.9534V19.4793L18.4763 19.6655Z" fill="white"/>
<path d="M18.8635 28.9448H18.8015V29.9845H18.8635V28.9448Z" fill="white"/>
<path d="M18.848 19.2931L18.6621 19.4793V20.9534L18.8015 20.8293V28.9448H18.848V19.2931Z" fill="white"/>
<path d="M18.848 16.7948V15.2431L18.6621 15.4603V16.9966L18.848 16.7948Z" fill="white"/>
<path d="M19.0338 28.9448H18.8479V29.9845H19.0338V28.9448Z" fill="white"/>
<path d="M19.0338 16.5931V15.0414L18.8479 15.2431V16.7948L19.0338 16.5931Z" fill="white"/>
<path d="M18.8479 19.2931V28.9448H19.0338V19.1069L18.8479 19.2931Z" fill="white"/>
<path d="M19.2198 28.9448H19.0339V29.9845H19.2198V28.9448Z" fill="white"/>
<path d="M19.2353 16.3914V14.8397L19.0339 15.0414V16.5931L19.2353 16.3914Z" fill="white"/>
<path d="M19.0339 19.1069V28.9448H19.2353V18.9207L19.0339 19.1069Z" fill="white"/>
<path d="M19.4212 14.6379L19.3748 14.6845H19.4212V14.6379Z" fill="white"/>
<path d="M19.4212 28.9448H19.2354V29.9845H19.4212V28.9448Z" fill="white"/>
<path d="M19.2354 18.9207V28.9448H19.4212V18.7345L19.2354 18.9207Z" fill="white"/>
<path d="M19.4212 16.1897V14.6845H19.3748L19.2354 14.8397V16.3914L19.4212 16.1897Z" fill="white"/>
<path d="M19.607 28.9448H19.4211V29.9845H19.607V28.9448Z" fill="white"/>
<path d="M19.607 14.6845V14.4362L19.4211 14.6379V14.6845H19.607Z" fill="white"/>
<path d="M19.4211 18.7345V28.9448H19.607V18.5483L19.4211 18.7345Z" fill="white"/>
<path d="M19.607 14.6845H19.4211V16.1897L19.607 15.9879V14.6845Z" fill="white"/>
<path d="M19.7928 28.9448H19.6069V29.9845H19.7928V28.9448Z" fill="white"/>
<path d="M19.7928 14.6845V14.2345L19.6069 14.4362V14.6845H19.7928Z" fill="white"/>
<path d="M19.7928 15.7707V14.6845H19.6069V15.9879L19.7928 15.7707Z" fill="white"/>
<path d="M19.6069 18.5483V28.9448H19.7928V18.3621L19.6069 18.5483Z" fill="white"/>
<path d="M19.8392 28.9448H19.7927V30H19.9786V28.9448H19.8392Z" fill="white"/>
<path d="M19.9786 14.6845V14.0328L19.7927 14.2345V14.6845H19.9786Z" fill="white"/>
<path d="M19.9786 15.569V14.6845H19.7927V15.7707L19.9786 15.569Z" fill="white"/>
<path d="M19.7927 18.3621V28.9448H19.8392V18.3L19.7927 18.3621Z" fill="white"/>
<path d="M20.1646 14.6845V13.831L19.9788 14.0328V14.6845H20.1646Z" fill="white"/>
<path d="M20.1646 28.9448H19.9788V29.9845H20.1646V28.9448Z" fill="white"/>
<path d="M20.1646 15.3672V14.6845H19.9788V15.569L20.1646 15.3672Z" fill="white"/>
<path d="M20.3504 14.6845V13.6293L20.1646 13.831V14.6845H20.3504Z" fill="white"/>
<path d="M20.3504 28.9448H20.1646V29.9845H20.3504V28.9448Z" fill="white"/>
<path d="M20.3504 15.1655V14.6845H20.1646V15.3672L20.3504 15.1655Z" fill="white"/>
<path d="M20.5362 28.9448H20.3503V29.9845H20.5362V28.9448Z" fill="white"/>
<path d="M20.5362 14.6845V13.4276L20.3503 13.6293V14.6845H20.5362Z" fill="white"/>
<path d="M20.5362 14.9638V14.6845H20.3503V15.1655L20.5362 14.9638Z" fill="white"/>
<path d="M20.7222 28.9448H20.5364V29.9845H20.7222V28.9448Z" fill="white"/>
<path d="M20.7222 14.6845V13.2259L20.5364 13.4276V14.6845H20.7222Z" fill="white"/>
<path d="M20.5364 14.9638L20.7222 14.7621V14.6845H20.5364V14.9638Z" fill="white"/>
<path d="M20.7222 13.2259V14.6845H20.7996V28.9448H20.7222V30H20.908V13.0086L20.7222 13.2259Z" fill="white"/>
<path d="M20.7996 14.6845H20.7222V14.7621L20.7996 14.6845Z" fill="white"/>
<path d="M20.908 13.0086V30H21.0938V12.8069L20.908 13.0086Z" fill="white"/>
<path d="M21.094 12.8069V30H21.2799V12.6052L21.094 12.8069Z" fill="white"/>
<path d="M21.2798 12.6052V30H21.4657V12.4034L21.2798 12.6052Z" fill="white"/>
<path d="M21.4656 12.4034V30H21.6514V12.2017L21.4656 12.4034Z" fill="white"/>
<path d="M21.6516 30H21.8375V12L21.6516 12.2017V30Z" fill="white"/>
<path d="M29.7058 25.3293L30.0001 25.6241V20.5345L29.7058 20.2086V25.3293Z" fill="white"/>
<path d="M29.396 19.8672V25.0345L29.7058 25.3293V20.2086L29.396 19.8672Z" fill="white"/>
<path d="M29.1016 19.5414V24.7241L29.3959 25.0345V19.8672L29.1016 19.5414Z" fill="white"/>
<path d="M28.9622 19.4017V20.9379V23.1103V24.5845L29.1016 24.7241V19.5414L28.9622 19.4017Z" fill="white"/>
<path d="M28.7917 22.9397V24.4293L28.9621 24.5845V23.1103L28.7917 22.9397Z" fill="white"/>
<path d="M28.9621 20.9379V19.4017L28.7917 19.2155V20.7672L28.9621 20.9379Z" fill="white"/>
<path d="M28.7918 20.7672V19.2155L28.4976 18.8897V20.4259L28.7918 20.7672Z" fill="white"/>
<path d="M28.4976 22.6448V24.119L28.7918 24.4293V22.9397L28.4976 22.6448Z" fill="white"/>
<path d="M28.2034 22.3345V23.8241L28.4977 24.119V22.6448L28.2034 22.3345Z" fill="white"/>
<path d="M28.4977 20.4259V18.8897L28.2034 18.5638V20.1L28.4977 20.4259Z" fill="white"/>
<path d="M28.2033 20.1V18.5638L27.8936 18.2379V19.7741L28.2033 20.1Z" fill="white"/>
<path d="M27.8936 22.0397V23.5138L28.2033 23.8241V22.3345L27.8936 22.0397Z" fill="white"/>
<path d="M27.8934 19.7741V18.2379L27.5991 17.9121V19.4483L27.8934 19.7741Z" fill="white"/>
<path d="M27.5991 21.7293V23.219L27.8934 23.5138V22.0397L27.5991 21.7293Z" fill="white"/>
<path d="M27.2896 21.4345V22.9086L27.5993 23.219V21.7293L27.2896 21.4345Z" fill="white"/>
<path d="M27.5993 19.4483V17.9121L27.2896 17.5707V19.1224L27.5993 19.4483Z" fill="white"/>
<path d="M26.9951 21.1241V22.6138L27.2894 22.9086V21.4345L26.9951 21.1241Z" fill="white"/>
<path d="M27.2894 19.1224V17.5707L26.9951 17.2448V18.7966L27.2894 19.1224Z" fill="white"/>
<path d="M26.9951 18.7966V17.2448L26.6853 16.919V18.4707L26.9951 18.7966Z" fill="white"/>
<path d="M26.6853 20.8293V22.3034L26.9951 22.6138V21.1241L26.6853 20.8293Z" fill="white"/>
<path d="M26.3911 20.5345V22.0086L26.6854 22.3034V20.8293L26.3911 20.5345Z" fill="white"/>
<path d="M26.6854 18.4707V16.919L26.3911 16.5931V18.1293L26.6854 18.4707Z" fill="white"/>
<path d="M26.0813 20.2241V21.6983L26.3911 22.0086V20.5345L26.0813 20.2241Z" fill="white"/>
<path d="M26.3911 18.1293V16.5931L26.0813 16.2672V17.8034L26.3911 18.1293Z" fill="white"/>
<path d="M26.0814 17.8034V16.2672L25.8955 16.0655V17.6017L26.0814 17.8034Z" fill="white"/>
<path d="M25.8955 20.0379V21.5121L26.0814 21.6983V20.2241L25.8955 20.0379Z" fill="white"/>
<path d="M25.7095 19.8517V21.3259L25.8953 21.5121V20.0379L25.7095 19.8517Z" fill="white"/>
<path d="M25.8953 17.6017V16.0655L25.7095 15.8638V17.4L25.8953 17.6017Z" fill="white"/>
<path d="M25.7095 17.4V15.8638L25.5237 15.6621V17.1983L25.7095 17.4Z" fill="white"/>
<path d="M25.5237 19.6655V21.1397L25.7095 21.3259V19.8517L25.5237 19.6655Z" fill="white"/>
<path d="M25.3379 19.4793V20.9534L25.5238 21.1397V19.6655L25.3379 19.4793Z" fill="white"/>
<path d="M25.5238 17.1983V15.6621L25.3379 15.4603V16.9966L25.5238 17.1983Z" fill="white"/>
<path d="M25.2141 28.9448H25.1521V29.9845H25.2141V28.9448Z" fill="white"/>
<path d="M25.338 16.9966V15.4603L25.1521 15.2431V16.7948L25.338 16.9966Z" fill="white"/>
<path d="M25.1521 19.2931V28.9448H25.2141V20.8293L25.338 20.9534V19.4793L25.1521 19.2931Z" fill="white"/>
<path d="M25.1519 28.9448H24.9661V29.9845H25.1519V28.9448Z" fill="white"/>
<path d="M24.9661 28.9448H25.1519V19.2931L24.9661 19.1069V28.9448Z" fill="white"/>
<path d="M25.1519 16.7948V15.2431L24.9661 15.0414V16.5931L25.1519 16.7948Z" fill="white"/>
<path d="M24.9661 28.9448H24.7803V29.9845H24.9661V28.9448Z" fill="white"/>
<path d="M24.9661 16.5931V15.0414L24.7803 14.8397V16.3914L24.9661 16.5931Z" fill="white"/>
<path d="M24.7803 18.9207V28.9448H24.9661V19.1069L24.7803 18.9207Z" fill="white"/>
<path d="M24.6255 14.6845L24.5945 14.6379V14.6845H24.6255Z" fill="white"/>
<path d="M24.7803 28.9448H24.5945V29.9845H24.7803V28.9448Z" fill="white"/>
<path d="M24.5945 18.7345V28.9448H24.7803V18.9207L24.5945 18.7345Z" fill="white"/>
<path d="M24.5945 16.1897L24.7803 16.3914V14.8397L24.6255 14.6845H24.5945V16.1897Z" fill="white"/>
<path d="M24.5943 28.9448H24.4084V29.9845H24.5943V28.9448Z" fill="white"/>
<path d="M24.5943 14.6845V14.6379L24.4084 14.4362V14.6845H24.5943Z" fill="white"/>
<path d="M24.4084 18.5483V28.9448H24.5943V18.7345L24.4084 18.5483Z" fill="white"/>
<path d="M24.5943 16.1897V14.6845H24.4084V15.9879L24.5943 16.1897Z" fill="white"/>
<path d="M24.4085 28.9448H24.2227V29.9845H24.4085V28.9448Z" fill="white"/>
<path d="M24.4085 14.6845V14.4362L24.2227 14.2345V14.6845H24.4085Z" fill="white"/>
<path d="M24.4085 15.9879V14.6845H24.2227V15.7707L24.4085 15.9879Z" fill="white"/>
<path d="M24.2227 18.3621V28.9448H24.4085V18.5483L24.2227 18.3621Z" fill="white"/>
<path d="M24.2227 14.6845V14.2345L24.0369 14.0328V14.6845H24.2227Z" fill="white"/>
<path d="M24.1608 28.9448H24.0369V30H24.2227V28.9448H24.1608Z" fill="white"/>
<path d="M24.1606 18.3V28.9448H24.2226V18.3621L24.1606 18.3Z" fill="white"/>
<path d="M24.2227 15.7707V14.6845H24.0369V15.569L24.2227 15.7707Z" fill="white"/>
<path d="M24.0367 14.6845V14.0328L23.8508 13.831V14.6845H24.0367Z" fill="white"/>
<path d="M24.0367 28.9448H23.8508V29.9845H24.0367V28.9448Z" fill="white"/>
<path d="M24.0367 15.569V14.6845H23.8508V15.3672L24.0367 15.569Z" fill="white"/>
<path d="M23.8355 28.9448H23.6497V29.9845H23.8355V28.9448Z" fill="white"/>
<path d="M23.851 14.6845V13.831L23.6497 13.6293V14.6845H23.851Z" fill="white"/>
<path d="M23.851 15.3672V14.6845H23.6497V15.1655L23.851 15.3672Z" fill="white"/>
<path d="M23.6495 14.6845V13.6293L23.4636 13.4276V14.6845H23.6495Z" fill="white"/>
<path d="M23.6495 28.9448H23.4636V29.9845H23.6495V28.9448Z" fill="white"/>
<path d="M23.6495 15.1655V14.6845H23.4636V14.9638L23.6495 15.1655Z" fill="white"/>
<path d="M23.4637 28.9448H23.2778V29.9845H23.4637V28.9448Z" fill="white"/>
<path d="M23.4637 14.6845V13.4276L23.2778 13.2259V14.6845H23.4637Z" fill="white"/>
<path d="M23.4637 14.9638V14.6845H23.2778V14.7621L23.4637 14.9638Z" fill="white"/>
<path d="M23.2005 28.9448V14.6845H23.2779V13.2259L23.092 13.0086V30H23.2779V28.9448H23.2005Z" fill="white"/>
<path d="M23.2779 14.6845H23.2004L23.2779 14.7621V14.6845Z" fill="white"/>
<path d="M22.906 12.8069V30H23.0919V13.0086L22.906 12.8069Z" fill="white"/>
<path d="M22.7202 12.6052V30H22.9061V12.8069L22.7202 12.6052Z" fill="white"/>
<path d="M22.5344 12.4034V30H22.7203V12.6052L22.5344 12.4034Z" fill="white"/>
<path d="M22.3484 12.2017V30H22.5343V12.4034L22.3484 12.2017Z" fill="white"/>
<path d="M22.1626 12V30H22.3485V12.2017L22.1626 12Z" fill="white"/>
</g>

</svg>
