<svg width="35" height="35" viewBox="0 0 35 35" fill="none" xmlns="http://www.w3.org/2000/svg">
    <defs>
        <linearGradient id="paint0_linear_78_2326" x1="-1.13636" y1="-1.13636" x2="35" y2="35" gradientUnits="userSpaceOnUse">
            <stop stop-color="#5961C3"/>
            <stop offset="1" stop-color="#3B42AD"/>
        </linearGradient>
    </defs>
    <circle cx="17.5" cy="17.5" r="17.5" fill="url(#paint0_linear_78_2326)"/>
<path d="M21.8672 11.7422L21.8672 12.9779C21.8672 13.0623 21.9041 13.1414 21.9692 13.1941C22.1186 13.3172 22.2627 13.449 22.3998 13.5879C22.9684 14.1558 23.4214 14.8286 23.734 15.5689C24.058 16.3359 24.2242 17.1603 24.2227 17.9929C24.2227 18.8349 24.0574 19.6506 23.734 20.417C23.4214 21.1573 22.9684 21.8301 22.3998 22.398C21.8332 22.967 21.1616 23.4207 20.4223 23.734C19.6559 24.0592 18.842 24.2226 18 24.2226C17.158 24.2226 16.3442 24.0574 15.5778 23.734C14.8377 23.4211 14.1715 22.9711 13.6002 22.398C13.0289 21.825 12.5789 21.1588 12.266 20.417C11.9426 19.6506 11.7774 18.8349 11.7774 17.9929C11.7774 17.151 11.9408 16.3353 12.266 15.5689C12.5789 14.8271 13.0289 14.1609 13.6002 13.5879C13.7391 13.449 13.8832 13.3189 14.0309 13.1941C14.0959 13.1414 14.1328 13.0605 14.1328 12.9779L14.1328 11.7422C14.1328 11.6314 14.0098 11.5629 13.9166 11.6244C11.8213 12.9726 10.4344 15.3316 10.4414 18.0123C10.452 22.224 13.8709 25.6008 18.0774 25.5586C22.217 25.5164 25.5586 22.1449 25.5586 17.9929C25.5586 15.3193 24.1735 12.9709 22.0834 11.6244C21.9903 11.5646 21.8672 11.6314 21.8672 11.7422ZM17.8893 10.1795L15.9205 12.6738C15.8467 12.767 15.9135 12.9023 16.0313 12.9023L17.3672 12.9023L17.3672 18.4219C17.3672 18.4992 17.4305 18.5625 17.5078 18.5625L18.4922 18.5625C18.5696 18.5625 18.6328 18.4992 18.6328 18.4219L18.6328 12.9023L19.9688 12.9023C20.0865 12.9023 20.1533 12.7652 20.0795 12.6738L18.1108 10.1795C18.0976 10.1627 18.0808 10.1491 18.0616 10.1397C18.0424 10.1304 18.0214 10.1255 18 10.1255C17.9787 10.1255 17.9576 10.1304 17.9384 10.1397C17.9192 10.1491 17.9024 10.1627 17.8893 10.1795V10.1795Z" fill="white"/>
</svg>
