<svg width="103" height="108" viewBox="0 0 103 108" fill="none" xmlns="http://www.w3.org/2000/svg">
<path d="M80.4581 67.4327H22.4932V70.3199H80.4581V67.4327Z" fill="#48E5FF"/>
<path d="M0 104.183C0 106.287 1.70772 108 3.80578 108H99.1942C101.292 108 103 106.287 103 104.183V45.1672H0V104.183Z" fill="#FFBF4D"/>
<path d="M0 45.1672L51.4756 6.16584L103 45.1672H0Z" fill="#FF813B"/>
<path d="M103 45.1672H0L36.6428 72.9135H66.3572L103 45.1672Z" fill="#D36A2F"/>
<path d="M80.4581 17.0295H10.2463V52.9479L36.6428 72.9134H66.3572L92.7049 52.9479V29.3122H80.4581V17.0295Z" fill="white"/>
<path d="M80.4581 29.3122H92.7049L80.4581 17.0295V29.3122Z" fill="#D8D9DA"/>
<path d="M49.4264 32.6398H22.4932V35.527H49.4264V32.6398Z" fill="#48E5FF"/>
<path d="M80.4581 17.0295H52.3051V72.9135H66.3572L92.7049 52.9479V29.3122H80.4581V17.0295Z" fill="#ECECED"/>
<path d="M62.0147 41.3503H22.4932V44.2374H62.0147V41.3503Z" fill="#48E5FF"/>
<path d="M80.4581 50.0607H22.4932V52.9479H80.4581V50.0607Z" fill="#48E5FF"/>
<path d="M80.4581 58.7712H22.4932V61.6584H80.4581V58.7712Z" fill="#48E5FF"/>
<path d="M3.80578 108H99.1942C101.292 108 103 106.287 103 104.183L66.3572 72.9135H36.594L0 104.183C0 106.287 1.70772 108 3.80578 108Z" fill="#DEAC4A"/>
</svg>
