<svg width="36" height="36" viewBox="0 0 36 36" fill="none" xmlns="http://www.w3.org/2000/svg">
    <defs>
        <linearGradient id="paint0_linear_79_4005" x1="4.32163" y1="3.62345" x2="32.1617" y2="30.1163" gradientUnits="userSpaceOnUse">
            <stop stop-color="#5961C3"/>
            <stop offset="1" stop-color="#3B42AD"/>
        </linearGradient>
    </defs>
    <path fill-rule="evenodd" clip-rule="evenodd" d="M18.0301 4.5C14.6423 4.5 11.5553 5.619 9.72907 6.53325C9.56407 6.61575 9.41032 6.69675 9.26707 6.77475C8.98357 6.92925 8.74207 7.07325 8.55007 7.2L10.6276 10.2585L11.6056 10.6477C15.4276 12.576 20.5531 12.576 24.3758 10.6477L25.4858 10.0717L27.4508 7.2C27.0437 6.93449 26.6204 6.69477 26.1833 6.48225C24.3668 5.57775 21.3541 4.5 18.0301 4.5ZM13.1978 7.962C12.4622 7.82434 11.7356 7.642 11.0221 7.416C12.7328 6.65625 15.2828 5.85 18.0293 5.85C19.9321 5.85 21.7313 6.237 23.2193 6.7275C21.4756 6.97275 19.6148 7.389 17.8418 7.90125C16.4468 8.30475 14.8163 8.26125 13.1978 7.962V7.962ZM25.1678 11.76L24.9841 11.853C20.7788 13.974 15.2018 13.974 10.9966 11.853L10.8226 11.7645C4.50608 18.6953 -0.316423 31.4978 18.0301 31.4978C36.3751 31.4978 31.4348 18.456 25.1678 11.76ZM17.2501 18C16.8522 18 16.4707 18.158 16.1894 18.4393C15.9081 18.7206 15.7501 19.1022 15.7501 19.5C15.7501 19.8978 15.9081 20.2794 16.1894 20.5607C16.4707 20.842 16.8522 21 17.2501 21V18ZM18.7501 16.5V15.75H17.2501V16.5C16.4544 16.5 15.6914 16.8161 15.1288 17.3787C14.5661 17.9413 14.2501 18.7044 14.2501 19.5C14.2501 20.2956 14.5661 21.0587 15.1288 21.6213C15.6914 22.1839 16.4544 22.5 17.2501 22.5V25.5C16.9399 25.5001 16.6373 25.404 16.3839 25.2249C16.1306 25.0459 15.939 24.7927 15.8356 24.5002C15.7693 24.3127 15.6313 24.1591 15.4518 24.0733C15.2724 23.9875 15.0661 23.9765 14.8786 24.0427C14.691 24.109 14.5374 24.247 14.4516 24.4265C14.3658 24.606 14.3548 24.8122 14.4211 24.9998C14.628 25.5847 15.0111 26.0912 15.5177 26.4494C16.0244 26.8076 16.6296 27 17.2501 27V27.75H18.7501V27C19.5457 27 20.3088 26.6839 20.8714 26.1213C21.434 25.5587 21.7501 24.7956 21.7501 24C21.7501 23.2044 21.434 22.4413 20.8714 21.8787C20.3088 21.3161 19.5457 21 18.7501 21V18C19.4026 18 19.9583 18.4163 20.1653 18.9998C20.196 19.0952 20.2456 19.1835 20.311 19.2595C20.3765 19.3355 20.4565 19.3976 20.5464 19.4421C20.6362 19.4866 20.7341 19.5127 20.8342 19.5187C20.9343 19.5247 21.0346 19.5106 21.1291 19.4772C21.2237 19.4438 21.3106 19.3918 21.3847 19.3242C21.4588 19.2566 21.5186 19.1749 21.5605 19.0838C21.6025 18.9927 21.6257 18.8941 21.6289 18.7939C21.6321 18.6937 21.6151 18.5938 21.5791 18.5002C21.3722 17.9153 20.9891 17.4088 20.4824 17.0506C19.9758 16.6924 19.3706 16.5 18.7501 16.5ZM18.7501 22.5V25.5C19.1479 25.5 19.5294 25.342 19.8107 25.0607C20.092 24.7794 20.2501 24.3978 20.2501 24C20.2501 23.6022 20.092 23.2206 19.8107 22.9393C19.5294 22.658 19.1479 22.5 18.7501 22.5Z" fill="url(#paint0_linear_79_4005)"/>

</svg>
