<svg width="35" height="35" viewBox="0 0 35 35" fill="none" xmlns="http://www.w3.org/2000/svg">
    <defs>
        <linearGradient id="paint0_linear_78_2304" x1="-1.13636" y1="-1.13636" x2="35" y2="35" gradientUnits="userSpaceOnUse">
            <stop stop-color="#5961C3"/>
            <stop offset="1" stop-color="#3B42AD"/>
        </linearGradient>
    </defs>
<circle cx="17.5" cy="17.5" r="17.5" fill="url(#paint0_linear_78_2304)"/>
<path d="M13.4133 13.3333H22.58L21.9533 12.6667H13.9533L13.4133 13.3333V13.3333ZM23.6933 13.4867C23.8867 13.7133 24 14 24 14.3333V22.6667C24 23.0203 23.8595 23.3594 23.6095 23.6095C23.3594 23.8595 23.0203 24 22.6667 24H13.3333C12.9797 24 12.6406 23.8595 12.3905 23.6095C12.1405 23.3594 12 23.0203 12 22.6667V14.3333C12 14 12.1133 13.7133 12.3067 13.4867L13.2267 12.3667C13.4133 12.14 13.6867 12 14 12H22C22.3133 12 22.5867 12.14 22.7667 12.3667L23.6933 13.4867V13.4867ZM14 22H18V20H14V22Z" fill="white"/>

</svg>
