<svg width="86" height="86" viewBox="0 0 86 86" fill="none" xmlns="http://www.w3.org/2000/svg">
<circle opacity="0.2" cx="43" cy="43" r="43" fill="url(#paint0_linear_78_2089)"/>
<circle opacity="0.2" cx="43" cy="43" r="21.5" fill="url(#paint1_linear_78_2089)"/>
<circle opacity="0.4" cx="43" cy="43" r="8.6" fill="black"/>
<path d="M40.4652 28.9445V40.715L42.1274 43.1954C42.4859 43.7302 43.2762 43.7302 43.6347 43.1954L45.2961 40.715V28.9445C44.5118 29.0887 43.7065 29.1744 42.8807 29.1744C42.0549 29.1744 41.2495 29.0887 40.4652 28.9445ZM42.8807 5.13617C36.8776 5.13617 32.0112 9.97912 32.0112 15.9534C32.0112 21.9276 36.8776 26.7705 42.8807 26.7705C48.8838 26.7705 53.7501 21.9276 53.7501 15.9534C53.7501 9.97912 48.8838 5.13617 42.8807 5.13617ZM42.8807 10.8452C40.0501 10.8452 37.7479 13.1364 37.7479 15.9534C37.7479 16.4506 37.3418 16.8548 36.8421 16.8548C36.3424 16.8548 35.9363 16.4506 35.9363 15.9534C35.9363 12.1426 39.0522 9.04238 42.8807 9.04238C43.3804 9.04238 43.7865 9.44652 43.7865 9.94381C43.7865 10.4411 43.3804 10.8452 42.8807 10.8452Z" fill="white"/>
<circle cx="43" cy="16.125" r="10.75" fill="url(#paint2_linear_78_2089)"/>
<circle cx="43.0001" cy="16.34" r="3.44" fill="white"/>
<defs>
<linearGradient id="paint0_linear_78_2089" x1="-2.79221" y1="-2.79221" x2="86" y2="86" gradientUnits="userSpaceOnUse">
<stop stop-color="#5961C3"/>
<stop offset="1" stop-color="#3B42AD"/>
</linearGradient>
<linearGradient id="paint1_linear_78_2089" x1="20.1039" y1="20.1039" x2="64.5" y2="64.5" gradientUnits="userSpaceOnUse">
<stop stop-color="#5961C3"/>
<stop offset="1" stop-color="#3B42AD"/>
</linearGradient>
<linearGradient id="paint2_linear_78_2089" x1="31.5519" y1="4.67695" x2="53.75" y2="26.875" gradientUnits="userSpaceOnUse">
<stop stop-color="#5961C3"/>
<stop offset="1" stop-color="#3B42AD"/>
</linearGradient>
</defs>
</svg>
