<svg width="35" height="35" viewBox="0 0 35 35" fill="none" xmlns="http://www.w3.org/2000/svg">
    <defs>
        <linearGradient id="paint0_linear_78_2320" x1="-1.13636" y1="-1.13636" x2="35" y2="35" gradientUnits="userSpaceOnUse">
            <stop stop-color="#5961C3"/>
            <stop offset="1" stop-color="#3B42AD"/>
        </linearGradient>
    </defs>
<circle cx="17.5" cy="17.5" r="17.5" fill="url(#paint0_linear_78_2320)"/>
<path d="M11.1425 12.3525C10.6025 12.5925 10.25 13.1325 10.25 13.725V17.25C10.25 21.4125 13.13 25.305 17 26.25C20.87 25.305 23.75 21.4125 23.75 17.25V13.725C23.75 13.1325 23.3975 12.5925 22.8575 12.3525L17.6075 10.02C17.2175 9.8475 16.775 9.8475 16.3925 10.02L11.1425 12.3525V12.3525ZM17 14.25C17.4125 14.25 17.75 14.5875 17.75 15C17.75 15.4125 17.4125 15.75 17 15.75C16.5875 15.75 16.25 15.4125 16.25 15C16.25 14.5875 16.5875 14.25 17 14.25ZM17 17.25C17.4125 17.25 17.75 17.5875 17.75 18V21C17.75 21.4125 17.4125 21.75 17 21.75C16.5875 21.75 16.25 21.4125 16.25 21V18C16.25 17.5875 16.5875 17.25 17 17.25Z" fill="white"/>

</svg>
