<svg width="198" height="24" viewBox="0 0 198 24" fill="none" xmlns="http://www.w3.org/2000/svg">
    <defs>
        <linearGradient id="paint0_linear_78_2053" x1="-0.779221" y1="-0.779221" x2="24" y2="24" gradientUnits="userSpaceOnUse">
            <stop stop-color="#5961C3"/>
            <stop offset="1" stop-color="#3B42AD"/>
        </linearGradient>
    </defs>
<rect width="24" height="24" rx="8" fill="url(#paint0_linear_78_2053)"/>
<rect x="83" width="24" height="24" rx="8" fill="#DADADA"/>
<rect x="174" width="24" height="24" rx="8" fill="#DADADA"/>
<path d="M11.0476 8.04V6.878H13.6796V17H12.3916V8.04H11.0476Z" fill="white"/>
<path d="M91.6613 15.978C92.8466 15.026 93.7753 14.2467 94.4473 13.64C95.1193 13.024 95.6839 12.3847 96.1413 11.722C96.6079 11.05 96.8413 10.392 96.8413 9.748C96.8413 9.14133 96.6919 8.66533 96.3933 8.32C96.1039 7.96533 95.6326 7.788 94.9793 7.788C94.3446 7.788 93.8499 7.98867 93.4953 8.39C93.1499 8.782 92.9633 9.30933 92.9353 9.972H91.7033C91.7406 8.92667 92.0579 8.11933 92.6553 7.55C93.2526 6.98067 94.0226 6.696 94.9653 6.696C95.9266 6.696 96.6873 6.962 97.2473 7.494C97.8166 8.026 98.1013 8.75867 98.1013 9.692C98.1013 10.4667 97.8679 11.2227 97.4013 11.96C96.9439 12.688 96.4213 13.332 95.8333 13.892C95.2453 14.4427 94.4939 15.0867 93.5793 15.824H98.3953V16.888H91.6613V15.978Z" fill="#1E1C1C"/>
<path d="M182.596 9.426C182.661 8.56733 182.993 7.89533 183.59 7.41C184.187 6.92467 184.962 6.682 185.914 6.682C186.549 6.682 187.095 6.79867 187.552 7.032C188.019 7.256 188.369 7.564 188.602 7.956C188.845 8.348 188.966 8.79133 188.966 9.286C188.966 9.86467 188.798 10.364 188.462 10.784C188.135 11.204 187.706 11.4747 187.174 11.596V11.666C187.781 11.8153 188.261 12.1093 188.616 12.548C188.971 12.9867 189.148 13.5607 189.148 14.27C189.148 14.802 189.027 15.2827 188.784 15.712C188.541 16.132 188.177 16.4633 187.692 16.706C187.207 16.9487 186.623 17.07 185.942 17.07C184.953 17.07 184.141 16.8133 183.506 16.3C182.871 15.7773 182.517 15.04 182.442 14.088H183.674C183.739 14.648 183.968 15.1053 184.36 15.46C184.752 15.8147 185.275 15.992 185.928 15.992C186.581 15.992 187.076 15.824 187.412 15.488C187.757 15.1427 187.93 14.6993 187.93 14.158C187.93 13.458 187.697 12.954 187.23 12.646C186.763 12.338 186.059 12.184 185.116 12.184H184.794V11.12H185.13C185.989 11.1107 186.637 10.9707 187.076 10.7C187.515 10.42 187.734 9.99067 187.734 9.412C187.734 8.91733 187.571 8.52067 187.244 8.222C186.927 7.92333 186.469 7.774 185.872 7.774C185.293 7.774 184.827 7.92333 184.472 8.222C184.117 8.52067 183.907 8.922 183.842 9.426H182.596Z" fill="#1E1C1C"/>
<line x1="29.5" y1="10.5" x2="75.5" y2="10.5" stroke="#DADADA" stroke-width="3" stroke-linecap="round" stroke-linejoin="round"/>
<line x1="120.5" y1="10.5" x2="166.5" y2="10.5" stroke="#DADADA" stroke-width="3" stroke-linecap="round" stroke-linejoin="round"/>

</svg>
