<svg width="24" height="24" viewBox="0 0 24 24" fill="none" xmlns="http://www.w3.org/2000/svg">
<g clip-path="url(#clip0_79_3997)">
<path d="M9.74979 0C9.55088 0 9.36011 0.0790176 9.21946 0.21967C9.07881 0.360322 8.99979 0.551088 8.99979 0.75C8.99979 0.948912 9.07881 1.13968 9.21946 1.28033C9.36011 1.42098 9.55088 1.5 9.74979 1.5H10.4998V3.105C7.87247 3.48474 5.48644 4.84541 3.82179 6.91325C2.15714 8.98108 1.33738 11.6026 1.52746 14.2504C1.71754 16.8983 2.90335 19.3758 4.8463 21.1847C6.78925 22.9935 9.34517 23.9994 11.9998 24C14.0126 23.9999 15.9831 23.4213 17.6764 22.333C19.3697 21.2447 20.7145 19.6927 21.5506 17.8617C22.3867 16.0307 22.679 13.998 22.3925 12.0056C22.106 10.0133 21.2529 8.14522 19.9348 6.624C19.9414 6.61811 19.9479 6.61211 19.9543 6.606L20.4853 6.075L21.0148 6.606C21.084 6.67763 21.1667 6.73477 21.2582 6.77408C21.3497 6.81338 21.4482 6.83407 21.5477 6.83494C21.6473 6.8358 21.7461 6.81683 21.8383 6.77912C21.9304 6.74141 22.0142 6.68572 22.0846 6.6153C22.155 6.54488 22.2107 6.46114 22.2484 6.36897C22.2861 6.27679 22.3051 6.17803 22.3042 6.07845C22.3034 5.97886 22.2827 5.88045 22.2434 5.78895C22.2041 5.69744 22.1469 5.61469 22.0753 5.5455L19.9543 3.423C19.8851 3.35137 19.8023 3.29423 19.7108 3.25492C19.6193 3.21562 19.5209 3.19493 19.4213 3.19406C19.3218 3.1932 19.223 3.21217 19.1308 3.24988C19.0386 3.28759 18.9549 3.34328 18.8845 3.4137C18.8141 3.48412 18.7584 3.56786 18.7207 3.66003C18.683 3.75221 18.664 3.85097 18.6648 3.95055C18.6657 4.05014 18.6864 4.14855 18.7257 4.24005C18.765 4.33156 18.8222 4.41431 18.8938 4.4835L19.4248 5.0145L18.8938 5.5455C18.8877 5.55143 18.8817 5.55743 18.8758 5.5635C17.3573 4.24466 15.4907 3.39159 13.4998 3.1065V1.5H14.2498C14.4487 1.5 14.6395 1.42098 14.7801 1.28033C14.9208 1.13968 14.9998 0.948912 14.9998 0.75C14.9998 0.551088 14.9208 0.360322 14.7801 0.21967C14.6395 0.0790176 14.4487 0 14.2498 0L9.74979 0ZM12.7498 8.4V13.5C12.7498 13.6989 12.6708 13.8897 12.5301 14.0303C12.3895 14.171 12.1987 14.25 11.9998 14.25H6.74979C6.55088 14.25 6.36011 14.171 6.21946 14.0303C6.07881 13.8897 5.99979 13.6989 5.99979 13.5C5.99979 13.3011 6.07881 13.1103 6.21946 12.9697C6.36011 12.829 6.55088 12.75 6.74979 12.75H11.2498V8.4C11.2498 8.20109 11.3288 8.01032 11.4695 7.86967C11.6101 7.72902 11.8009 7.65 11.9998 7.65C12.1987 7.65 12.3895 7.72902 12.5301 7.86967C12.6708 8.01032 12.7498 8.20109 12.7498 8.4V8.4Z" fill="#FA773F"/>
</g>
<defs>
<clipPath id="clip0_79_3997">
<rect width="24" height="24" fill="white"/>
</clipPath>
</defs>
</svg>
