<svg width="18" height="18" viewBox="0 0 18 18" fill="none" xmlns="http://www.w3.org/2000/svg">
<path d="M16.1594 12.0454C15.9484 12.2563 15.6623 12.3748 15.364 12.3748C15.0657 12.3748 14.7796 12.2563 14.5686 12.0454L8.9999 6.47662L3.43115 12.0454C3.21898 12.2503 2.9348 12.3637 2.63983 12.3611C2.34486 12.3586 2.06269 12.2402 1.85411 12.0317C1.64552 11.8231 1.52721 11.5409 1.52465 11.2459C1.52208 10.951 1.63548 10.6668 1.84041 10.4546L8.20452 4.0905C8.41549 3.87959 8.70159 3.76111 8.9999 3.76111C9.29821 3.76111 9.5843 3.87959 9.79527 4.0905L16.1594 10.4546C16.3703 10.6656 16.4888 10.9517 16.4888 11.25C16.4888 11.5483 16.3703 11.8344 16.1594 12.0454V12.0454Z" fill="black" fill-opacity="0.6"/>
</svg>
