<svg width="32" height="32" viewBox="0 0 32 32" fill="none" xmlns="http://www.w3.org/2000/svg">
<g opacity="0.4">
<path fill-rule="evenodd" clip-rule="evenodd" d="M18.6348 2.66707C18.6921 2.66707 18.7484 2.67191 18.8031 2.68121L18.9833 2.68227C19.2553 2.68227 19.5153 2.79294 19.7046 2.98894L26.4593 10.0249C26.6366 10.2103 26.7367 10.4596 26.7367 10.7169V22.9703C26.7579 26.3156 24.15 29.0343 20.7993 29.1543H9.94595C6.69232 29.0843 4.08289 26.4551 4.00244 23.2346L4.00195 8.65427C4.08062 5.34627 6.81129 2.68227 10.094 2.68227L18.4664 2.68121C18.5211 2.67191 18.5774 2.66707 18.6348 2.66707ZM17.634 4.68173L10.098 4.68227C7.88862 4.68227 6.05395 6.4716 6.00195 8.67827V22.9703C5.95395 25.2383 7.74062 27.1049 9.98729 27.1543H20.7646C22.99 27.0743 24.7513 25.2383 24.7367 22.9769L24.7366 11.9777L22.0588 11.9791C19.6174 11.9724 17.6348 9.98307 17.6348 7.54574L17.634 4.68173ZM14.8558 12.2123C15.1318 12.2123 15.3818 12.3243 15.5628 12.5053L15.5642 12.5061L18.6922 15.6475C19.0816 16.0395 19.0802 16.6715 18.6896 17.0608C18.2976 17.4501 17.6642 17.4501 17.2749 17.0581L15.8553 15.6324L15.8558 21.2669C15.8558 21.8189 15.4078 22.2669 14.8558 22.2669C14.3038 22.2669 13.8558 21.8189 13.8558 21.2669L13.8553 15.6324L12.4376 17.0581C12.2429 17.2555 11.9856 17.3528 11.7296 17.3528C11.4749 17.3528 11.2189 17.2555 11.0242 17.0608C10.6336 16.6715 10.6309 16.0395 11.0216 15.6475L14.1469 12.5061L14.1915 12.465C14.2108 12.4479 14.2307 12.4314 14.2513 12.4158L14.1469 12.5061C14.1841 12.4688 14.2241 12.4352 14.2664 12.4053C14.4311 12.2839 14.6351 12.2123 14.8558 12.2123ZM19.634 5.80307L19.6348 7.54574C19.6348 8.8844 20.7228 9.97507 22.0614 9.97907L23.6406 9.97774L19.634 5.80307Z" fill="black"/>
</g>
</svg>
