<svg width="35" height="35" viewBox="0 0 35 35" fill="none" xmlns="http://www.w3.org/2000/svg">
<circle cx="17.5" cy="17.5" r="17.5" fill="url(#paint0_linear_81_4058)"/>
<path d="M10.5 14.5C10.5 13.9696 10.7107 13.4609 11.0858 13.0858C11.4609 12.7107 11.9696 12.5 12.5 12.5H23.5C24.0304 12.5 24.5391 12.7107 24.9142 13.0858C25.2893 13.4609 25.5 13.9696 25.5 14.5V16H10.5V14.5ZM10.5 17H25.5V21.5C25.5 22.0304 25.2893 22.5391 24.9142 22.9142C24.5391 23.2893 24.0304 23.5 23.5 23.5H12.5C11.9696 23.5 11.4609 23.2893 11.0858 22.9142C10.7107 22.5391 10.5 22.0304 10.5 21.5V17ZM21.5 21C21.3674 21 21.2402 21.0527 21.1464 21.1464C21.0527 21.2402 21 21.3674 21 21.5C21 21.6326 21.0527 21.7598 21.1464 21.8536C21.2402 21.9473 21.3674 22 21.5 22H23.5C23.6326 22 23.7598 21.9473 23.8536 21.8536C23.9473 21.7598 24 21.6326 24 21.5C24 21.3674 23.9473 21.2402 23.8536 21.1464C23.7598 21.0527 23.6326 21 23.5 21H21.5Z" fill="white"/>
<defs>
<linearGradient id="paint0_linear_81_4058" x1="-1.13636" y1="-1.13636" x2="35" y2="35" gradientUnits="userSpaceOnUse">
<stop stop-color="#5961C3"/>
<stop offset="1" stop-color="#3B42AD"/>
</linearGradient>
</defs>
</svg>
