<svg width="36" height="36" viewBox="0 0 36 36" fill="none" xmlns="http://www.w3.org/2000/svg">
    <defs>
        <linearGradient id="paint0_linear_79_4009" x1="3.80588" y1="3.62338" x2="31.6802" y2="31.1441" gradientUnits="userSpaceOnUse">
            <stop stop-color="#5961C3"/>
            <stop offset="1" stop-color="#3B42AD"/>
        </linearGradient>
    </defs>
    <path fill-rule="evenodd" clip-rule="evenodd" d="M30.1573 28.6665C30.1147 29.4322 29.7806 30.1525 29.2235 30.6794C28.6664 31.2064 27.9286 31.5 27.1618 31.5H8.83776C8.07091 31.5 7.33317 31.2064 6.77607 30.6794C6.21897 30.1525 5.88482 29.4322 5.84226 28.6665L4.67601 7.6665C4.65337 7.25919 4.71404 6.85155 4.8543 6.46849C4.99456 6.08543 5.21148 5.73499 5.49178 5.43861C5.77208 5.14223 6.10989 4.90614 6.48454 4.74475C6.85919 4.58337 7.26283 4.50009 7.67076 4.5H28.3288C28.7368 4.49998 29.1405 4.58319 29.5152 4.74453C29.89 4.90587 30.2279 5.14195 30.5082 5.43834C30.7886 5.73473 31.0056 6.0852 31.1459 6.46831C31.2862 6.85142 31.3469 7.25913 31.3243 7.6665L30.1573 28.6665ZM25.6828 13.3342C26.2978 12.9292 26.4523 12.126 25.9475 11.6032C25.0913 10.7198 24.0907 9.98878 22.9888 9.44175C21.4587 8.68283 19.7781 8.27613 18.0703 8.2515C16.3609 8.22317 14.6669 8.5773 13.112 9.288C11.991 9.80021 10.9651 10.4992 10.0783 11.355C9.55551 11.862 9.68076 12.669 10.2815 13.0935L13.5155 15.378C14.1155 15.8025 14.9615 15.6652 15.5833 15.2692C15.7437 15.1675 15.9108 15.0768 16.0835 14.9977C16.6355 14.7452 17.2345 14.6116 17.8415 14.6055L20.3863 11.6797C20.5167 11.5296 20.7015 11.4374 20.9 11.4235C20.9983 11.4166 21.0969 11.4291 21.1904 11.4603C21.2838 11.4916 21.3702 11.5409 21.4445 11.6055C21.5189 11.6701 21.5798 11.7487 21.6238 11.8369C21.6677 11.925 21.6939 12.021 21.7008 12.1192C21.7077 12.2175 21.6952 12.3162 21.6639 12.4096C21.6327 12.503 21.5834 12.5894 21.5188 12.6638L19.5448 14.9325C19.8121 15.0431 20.0675 15.1809 20.3068 15.3435C20.9143 15.7583 21.7543 15.921 22.3693 15.516L25.682 13.3335L25.6828 13.3342Z" fill="url(#paint0_linear_79_4009)"/>
</svg>
